<?xml version="1.0" encoding="utf-8"?>
<svg version="1.1" x="0px" y="0px" viewBox="0 0 100 125" enable-background="new 0 0 100 100" style="filter: url('#drop-shadow-filter-1');" xmlns="http://www.w3.org/2000/svg" xmlns:bx="https://boxy-svg.com">
  <defs>
    <filter id="drop-shadow-filter-0" color-interpolation-filters="sRGB" x="-50%" y="-50%" width="200%" height="200%" bx:preset="drop-shadow 1 -1 -0.5 0.8 0.27 #001543">
      <feGaussianBlur in="SourceAlpha" stdDeviation="0.8"/>
      <feOffset dx="-1" dy="-0.5"/>
      <feComponentTransfer result="offsetblur">
        <feFuncA id="spread-ctrl" type="linear" slope="0.54"/>
      </feComponentTransfer>
      <feFlood flood-color="#001543"/>
      <feComposite in2="offsetblur" operator="in"/>
      <feMerge>
        <feMergeNode/>
        <feMergeNode in="SourceGraphic"/>
      </feMerge>
    </filter>
    <filter id="drop-shadow-filter-1" color-interpolation-filters="sRGB" x="-50%" y="-50%" width="200%" height="200%" bx:preset="drop-shadow 1 -2 -1.5 1.5 0.11 #a549b858">
      <feGaussianBlur in="SourceAlpha" stdDeviation="1.5"/>
      <feOffset dx="-2" dy="-1.5"/>
      <feComponentTransfer result="offsetblur">
        <feFuncA id="spread-ctrl" type="linear" slope="0.22"/>
      </feComponentTransfer>
      <feFlood flood-color="#a549b858"/>
      <feComposite in2="offsetblur" operator="in"/>
      <feMerge>
        <feMergeNode/>
        <feMergeNode in="SourceGraphic"/>
      </feMerge>
    </filter>
    <filter id="filter-1" color-interpolation-filters="sRGB" x="-50%" y="-50%" width="200%" height="200%" bx:preset="drop-shadow 1 -1 -0.5 0.8 0.27 #001543">
      <feGaussianBlur in="SourceAlpha" stdDeviation="0.8"/>
      <feOffset dx="-1" dy="-0.5"/>
      <feComponentTransfer result="offsetblur">
        <feFuncA id="feFuncA-1" type="linear" slope="0.54"/>
      </feComponentTransfer>
      <feFlood flood-color="#001543"/>
      <feComposite in2="offsetblur" operator="in"/>
      <feMerge>
        <feMergeNode/>
        <feMergeNode in="SourceGraphic"/>
      </feMerge>
    </filter>
    <linearGradient gradientUnits="userSpaceOnUse" x1="60.096" y1="28.068" x2="60.096" y2="111.005" id="gradient-0" gradientTransform="matrix(1, 0, 0, 1, -3.026483, -5.801298)">
      <stop offset="0" style="stop-color: rgb(65.49% 78.039% 90.588%)"/>
      <stop offset="1" style="stop-color: rgb(33.096% 45.419% 56.785%)"/>
    </linearGradient>
  </defs>
  <path d="M 49.622 105.14 L 64.988 96.018 L 80.351 86.915 C 80.368 86.904 80.378 86.888 80.393 86.876 C 80.421 86.856 80.447 86.834 80.469 86.808 C 80.489 86.786 80.503 86.76 80.518 86.734 C 80.533 86.707 80.547 86.681 80.558 86.651 C 80.568 86.619 80.573 86.587 80.578 86.552 C 80.58 86.532 80.589 86.515 80.589 86.493 L 80.589 68.283 L 80.589 50.057 L 80.589 31.849 C 80.589 31.839 80.583 31.83 80.583 31.822 C 80.581 31.8 80.58 31.78 80.575 31.758 C 80.571 31.737 80.565 31.715 80.558 31.694 C 80.55 31.673 80.543 31.653 80.533 31.633 C 80.529 31.625 80.529 31.615 80.525 31.607 C 80.52 31.6 80.511 31.594 80.507 31.587 C 80.494 31.568 80.483 31.553 80.469 31.537 C 80.454 31.518 80.439 31.503 80.421 31.488 C 80.404 31.473 80.389 31.46 80.371 31.448 C 80.363 31.443 80.359 31.434 80.351 31.43 L 64.988 22.325 C 64.972 22.316 64.954 22.315 64.938 22.308 C 64.905 22.292 64.873 22.279 64.837 22.273 C 64.811 22.268 64.786 22.268 64.76 22.267 C 64.726 22.266 64.693 22.267 64.66 22.275 C 64.63 22.28 64.602 22.293 64.574 22.304 C 64.554 22.313 64.534 22.314 64.515 22.324 L 49.148 31.429 C 49.141 31.434 49.136 31.441 49.128 31.446 C 49.109 31.458 49.093 31.472 49.076 31.487 C 49.059 31.502 49.045 31.517 49.03 31.536 C 49.016 31.552 49.004 31.567 48.993 31.586 C 48.987 31.594 48.979 31.599 48.974 31.607 C 48.969 31.614 48.969 31.625 48.966 31.632 C 48.955 31.652 48.948 31.672 48.941 31.693 C 48.933 31.715 48.928 31.736 48.924 31.758 C 48.919 31.779 48.917 31.799 48.915 31.821 C 48.915 31.83 48.91 31.839 48.91 31.848 L 48.91 50.056 L 48.91 68.002 L 33.79 76.965 C 33.78 76.97 33.777 76.981 33.768 76.986 C 33.751 76.998 33.737 77.008 33.722 77.022 C 33.704 77.039 33.689 77.054 33.673 77.072 C 33.658 77.089 33.647 77.105 33.635 77.123 C 33.63 77.131 33.621 77.135 33.617 77.143 C 33.612 77.151 33.612 77.162 33.608 77.17 C 33.598 77.189 33.59 77.208 33.584 77.23 C 33.576 77.251 33.57 77.273 33.567 77.295 C 33.562 77.315 33.56 77.337 33.558 77.358 C 33.558 77.368 33.552 77.376 33.552 77.387 L 33.552 95.595 C 33.552 95.616 33.562 95.634 33.564 95.654 C 33.568 95.687 33.573 95.719 33.584 95.752 C 33.594 95.781 33.608 95.809 33.623 95.835 C 33.638 95.862 33.653 95.887 33.673 95.911 C 33.694 95.937 33.721 95.958 33.748 95.979 C 33.763 95.99 49.146 105.138 49.146 105.138 C 49.147 105.138 49.148 105.138 49.148 105.139 C 49.156 105.143 49.163 105.142 49.17 105.145 C 49.234 105.179 49.305 105.204 49.383 105.204 C 49.461 105.204 49.531 105.18 49.596 105.145 C 49.604 105.142 49.611 105.143 49.618 105.139 C 49.62 105.14 49.621 105.14 49.622 105.14 Z M 50.332 31.849 L 79.169 31.849 L 50.332 31.849 Z M 49.858 103.876 L 64.278 78.229 L 49.858 103.876 Z M 79.642 68.003 L 65.226 76.546 L 79.642 68.003 Z M 79.642 32.69 L 65.226 58.337 L 79.642 32.69 Z M 64.279 58.337 L 49.859 49.777 L 64.279 58.337 Z M 49.858 68.004 L 64.278 76.547 L 49.858 68.004 Z M 65.226 77.668 L 79.642 86.214 L 65.226 77.668 Z M 34.974 77.389 L 49.385 85.933 L 34.974 77.389 Z" style="filter: url('#drop-shadow-filter-0'); stroke-width: 0px; fill: url('#gradient-0');"/>
  <text x="0" y="115" fill="#000000" font-size="5px" font-weight="bold" font-family="'Helvetica Neue', Helvetica, Arial-Unicode, Arial, Sans-serif" style="white-space: pre;"> </text>
  <text x="0" y="120" fill="#000000" font-size="5px" font-weight="bold" font-family="'Helvetica Neue', Helvetica, Arial-Unicode, Arial, Sans-serif" style="white-space: pre;"> </text>
  <path d="M 45.451 103.25 L 61.685 93.867 L 77.915 84.502 C 77.933 84.492 77.943 84.475 77.959 84.463 C 77.988 84.442 78.016 84.42 78.039 84.393 C 78.06 84.37 78.075 84.343 78.091 84.316 C 78.107 84.289 78.122 84.262 78.133 84.231 C 78.144 84.198 78.149 84.165 78.154 84.13 C 78.156 84.109 78.166 84.091 78.166 84.069 L 78.166 65.336 L 78.166 46.587 L 78.166 27.857 C 78.166 27.846 78.16 27.837 78.16 27.828 C 78.158 27.806 78.156 27.785 78.151 27.764 C 78.147 27.741 78.141 27.719 78.133 27.697 C 78.125 27.676 78.117 27.655 78.107 27.635 C 78.103 27.626 78.103 27.616 78.098 27.608 C 78.093 27.6 78.084 27.594 78.079 27.587 C 78.066 27.568 78.054 27.552 78.039 27.535 C 78.023 27.516 78.007 27.501 77.989 27.485 C 77.971 27.469 77.955 27.457 77.936 27.444 C 77.927 27.439 77.923 27.43 77.915 27.425 L 61.685 18.059 C 61.668 18.049 61.649 18.048 61.632 18.041 C 61.597 18.025 61.563 18.012 61.525 18.005 C 61.498 18 61.471 18 61.444 17.999 C 61.408 17.998 61.373 17.999 61.338 18.007 C 61.306 18.013 61.277 18.026 61.247 18.037 C 61.226 18.046 61.205 18.047 61.185 18.058 L 44.951 27.424 C 44.943 27.429 44.938 27.437 44.93 27.442 C 44.91 27.455 44.893 27.468 44.875 27.484 C 44.857 27.5 44.842 27.515 44.826 27.534 C 44.811 27.551 44.799 27.567 44.787 27.586 C 44.781 27.594 44.772 27.599 44.767 27.607 C 44.762 27.615 44.762 27.626 44.758 27.634 C 44.747 27.654 44.739 27.674 44.732 27.696 C 44.724 27.718 44.718 27.74 44.714 27.763 C 44.709 27.784 44.707 27.805 44.705 27.827 C 44.705 27.837 44.699 27.846 44.699 27.856 L 44.699 46.586 L 44.699 65.047 L 28.726 74.268 C 28.716 74.273 28.712 74.283 28.703 74.289 C 28.685 74.301 28.67 74.312 28.654 74.326 C 28.635 74.343 28.619 74.359 28.602 74.378 C 28.587 74.395 28.575 74.411 28.562 74.43 C 28.557 74.438 28.548 74.443 28.543 74.451 C 28.538 74.459 28.538 74.47 28.534 74.478 C 28.523 74.498 28.515 74.518 28.508 74.54 C 28.5 74.562 28.494 74.584 28.49 74.607 C 28.485 74.628 28.483 74.649 28.481 74.671 C 28.481 74.681 28.475 74.69 28.475 74.7 L 28.475 93.432 C 28.475 93.453 28.485 93.472 28.487 93.493 C 28.492 93.527 28.497 93.56 28.508 93.594 C 28.519 93.624 28.534 93.652 28.55 93.68 C 28.566 93.707 28.581 93.733 28.602 93.756 C 28.625 93.783 28.653 93.805 28.682 93.826 C 28.698 93.838 28.708 93.855 28.726 93.865 L 44.949 103.248 C 44.95 103.248 44.951 103.248 44.951 103.249 C 44.959 103.253 44.967 103.252 44.974 103.256 C 45.042 103.291 45.117 103.316 45.199 103.316 C 45.281 103.316 45.355 103.292 45.424 103.256 C 45.432 103.252 45.44 103.253 45.447 103.249 C 45.449 103.25 45.45 103.25 45.451 103.25 Z M 61.436 19.068 L 76.666 27.857 L 61.436 36.645 L 46.202 27.857 L 61.436 19.068 Z M 45.701 84.357 L 60.935 75.567 L 60.935 93.146 L 45.701 101.951 L 45.701 84.357 Z M 77.166 65.048 L 61.936 73.836 L 61.936 56.259 L 77.166 47.453 L 77.166 65.048 Z M 77.166 46.299 L 61.936 55.105 L 61.936 37.51 L 77.166 28.722 L 77.166 46.299 Z M 60.936 55.105 L 45.702 46.299 L 45.702 28.722 L 60.936 37.51 L 60.936 55.105 Z M 45.701 47.454 L 60.935 56.26 L 60.935 73.837 L 45.701 65.049 L 45.701 47.454 Z M 61.936 74.99 L 77.166 66.202 L 77.166 83.781 L 61.936 92.569 L 61.936 74.99 Z M 45.201 65.914 L 60.435 74.702 L 45.201 83.492 L 29.977 74.702 L 45.201 65.914 Z M 29.479 75.567 L 44.702 84.357 L 44.702 101.951 L 29.479 93.146 L 29.479 75.567 Z" style="filter: url('#filter-1'); fill: rgb(0, 21, 67);"/>
</svg>