<?xml version="1.0" encoding="utf-8"?>
<svg width="800px" height="800px" viewBox="0 0 256 256" data-name="Layer 1" id="Layer_1" xmlns="http://www.w3.org/2000/svg">
  <defs>
    <style>.cls-1{fill:#84d0f7;}.cls-2{fill:#aa392d;}.cls-3{fill:#7c211a;}.cls-4{fill:#eab198;}.cls-5{fill:#2d2d2d;}.cls-6{opacity:0.2;}.cls-7{opacity:0.3;}</style>
  </defs>
  <g data-name="Male 1" id="Male_1">
    <path class="cls-1" d="M 246.416 130.596 C 246.421 163.927 232.754 195.801 208.606 218.776 L 41.156 218.776 C 37.974 215.989 34.968 213.006 32.156 209.846 L 31.336 208.846 C 24.336 200.516 1.656 170.966 2.826 130.526 C 4.396 74.586 51.486 8.776 124.596 8.776 C 191.876 8.776 246.416 63.317 246.416 130.596 Z" id="Wallpaper" style="fill: rgba(0, 21, 67, 0); transform-box: fill-box; transform-origin: 50% 50%;"/>
    <path class="cls-2" d="M221.73,206.18a121.92,121.92,0,0,1-93.3,43.47c-39.61,0-69.27-21-83.46-33.6a103.65,103.65,0,0,1-9-8.94l-.82-1c13.58-13.7,31.87-24.34,53-30.37C94,190.44,109.81,201,128.41,201c17.29,0,32.18-9.07,39-22.1.51-1,1-2,1.39-3.08.4.11.65.17,1.16.33C190.5,182.2,208.39,192.7,221.73,206.18Z" id="Sweater" style="fill: rgb(0, 21, 67);"/>
    <path class="cls-3" d="M 168.827 175.822 C 168.397 176.893 168.781 176.433 168.26 177.526 C 161.352 191.451 146.149 201.2 128.45 201.2 C 109.461 201.2 94.117 191.457 88.115 175.74 C 89.538 175.77 85.286 176.316 91.055 175.005 C 93.041 174.554 93.332 174.283 94.485 174.13 C 117.334 171.094 145.296 201.155 160.54 177.535 C 161.576 175.93 161.762 175.219 162.523 174.11 C 164.714 174.58 166.977 175.305 168.827 175.822 Z" id="Neckband" style="fill: rgb(1, 15, 47);"/>
    <path class="cls-4" d="M162.48,174.13a37.87,37.87,0,0,1-68.12,0c1.35-.34,2.7-.65,4.08-.91l1-.22.51-.09c.28-.07.57-.11.86-.18l1.2-.2.91-.18H103c.35-.86.68-1.79,1-2.81.11-.33.22-.71.34-1.07.39-1.46.68-2.83.88-4.05a42.06,42.06,0,0,0,6.9,4.59,5.48,5.48,0,0,1,.53.28l.64.31c.22.12.49.23.73.36l.45.2.37.18.47.2.44.17a1.76,1.76,0,0,0,.2.09l.53.2.67.27h.06l.71.26a1,1,0,0,0,.16.05l.51.17.78.23.35.09.71.19a35.9,35.9,0,0,0,4.52.8c.16,0,.31,0,.47.05l.33,0,.62,0,.55,0c.23,0,.43,0,.65,0h.55a30.48,30.48,0,0,0,9.71-1.62.11.11,0,0,0,.07,0,1.79,1.79,0,0,0,.35-.11c.8-.27,1.51-.56,2.13-.8l.84-.36.22-.08a38.71,38.71,0,0,0,9.87-6.12c.31,1.37.69,2.83,1.15,4.36.42,1.38.87,2.66,1.33,3.88.36.07.73.11,1.09.2s.73.14,1.08.2l1.09.2.8.16c.2,0,.37.06.55.11C159.77,173.51,161.13,173.79,162.48,174.13Z" id="Neck" style="fill: rgb(206, 145, 118);"/>
    <path class="cls-5" d="M102.91,53.93A65.1,65.1,0,0,0,85.85,76.37,72,72,0,0,0,80,94.28,66.73,66.73,0,0,0,79,109a5.56,5.56,0,0,0-2.19,0c-.67-2.49-1.26-6-2.09-10.49-1-5.85-1.55-8.78-1.39-12a36.8,36.8,0,0,1,6.6-18.34C86.24,59.39,96.8,54.75,102.91,53.93Z" id="Hairs" style="fill: rgb(16, 16, 16);"/>
    <path class="cls-5" d="M182.1,98.49c-.8,4.52-1.42,8-2.09,10.49-.71,2.7-1.48,4.27-2.59,4.81h0c.18-1.6.31-3.17.37-4.77a64.9,64.9,0,0,0-3.5-24.58l.4-.29.44-.33a1.88,1.88,0,0,0,.25-.2A24.35,24.35,0,0,0,180,78.85a4.49,4.49,0,0,0,.84-3.55,35.43,35.43,0,0,1,2.66,11.18v0C183.67,89.73,183.14,92.66,182.1,98.49Z" data-name="Hairs" id="Hairs-2" style="fill: rgb(16, 16, 16);"/>
    <path class="cls-6" d="M 169.91 176.085 C 169.08 177.084 168.22 177.943 167.36 178.831 C 165.386 180.787 163.281 182.605 161.06 184.275 C 158.138 186.463 154.949 188.272 151.57 189.657 C 149.445 190.517 147.241 191.169 144.99 191.605 C 142.996 191.982 140.969 192.153 138.94 192.115 C 134.951 192.043 131.011 191.23 127.32 189.718 C 127.1 189.64 126.886 189.547 126.68 189.438 C 123.744 188.191 120.962 186.609 118.39 184.724 C 113.528 181.126 109.251 176.801 105.71 171.9 C 105.13 171.121 104.58 170.332 104.02 169.533 C 104.13 169.203 104.24 168.824 104.36 168.464 C 104.75 167.006 105.04 165.637 105.24 164.419 C 105.82 164.879 106.44 165.349 107.04 165.787 C 108.67 166.967 110.373 168.041 112.14 169.003 C 112.322 169.087 112.499 169.18 112.67 169.283 L 113.31 169.593 C 113.53 169.712 113.8 169.823 114.04 169.953 L 114.49 170.152 L 114.86 170.332 L 115.33 170.532 L 115.77 170.701 C 115.835 170.735 115.902 170.766 115.97 170.792 L 116.5 170.991 L 117.17 171.26 L 117.23 171.26 L 117.94 171.521 C 117.992 171.541 118.045 171.558 118.1 171.57 L 118.61 171.74 L 119.39 171.97 L 119.74 172.06 L 120.45 172.249 C 121.934 172.632 123.445 172.899 124.97 173.049 C 125.13 173.049 125.28 173.049 125.44 173.098 L 125.77 173.098 L 126.39 173.098 L 126.94 173.098 C 127.17 173.098 127.37 173.098 127.59 173.098 L 128.14 173.098 C 131.441 173.067 134.717 172.521 137.85 171.481 C 137.873 171.488 137.897 171.488 137.92 171.481 C 138.04 171.456 138.157 171.419 138.27 171.371 C 138.94 171.141 139.58 170.901 140.22 170.642 L 140.42 170.571 L 141.24 170.212 L 141.46 170.132 C 144.373 168.8 147.138 167.167 149.71 165.258 C 150.26 164.859 150.8 164.439 151.33 164.02 C 151.64 165.388 152.02 166.847 152.48 168.375 C 152.9 169.753 153.35 171.031 153.81 172.249 C 154.17 172.32 154.54 172.36 154.9 172.449 C 155.26 172.539 155.63 172.589 155.98 172.65 L 157.07 172.849 L 157.87 173.009 C 158.07 173.009 158.24 173.069 158.42 173.118 C 159.77 173.408 161.13 173.688 162.48 174.028 C 164.58 174.506 166.69 175.026 168.75 175.665 L 169.91 176.085 Z" id="NeckShadow"/>
    <path class="cls-4" d="M186.46,119.88c-.16,5.19-3.47,10.44-7.18,12.37a7.22,7.22,0,0,1-1.57.6l-.12,0a4.9,4.9,0,0,1-2.05.06,5.05,5.05,0,0,1-2-.88l-.28-.2a7.82,7.82,0,0,1-1.12-1.11c-2.67-3.22-3.76-9.27-2-14.09a14.55,14.55,0,0,1,3.23-5,9,9,0,0,1,4.42-2.6,6.1,6.1,0,0,1,2.37,0C184.56,109.89,186.59,115.54,186.46,119.88Z" id="RightEar"/>
    <path class="cls-7" d="M186.46,119.88c-.16,5.19-3.47,10.44-7.18,12.37a7.22,7.22,0,0,1-1.57.6l-.12,0a4.9,4.9,0,0,1-2.05.06,5.05,5.05,0,0,1-2-.88l-.28-.2a7.82,7.82,0,0,1-1.12-1.11c-2.67-3.22-3.76-9.27-2-14.09a14.55,14.55,0,0,1,3.23-5,9,9,0,0,1,4.42-2.6,6.1,6.1,0,0,1,2.37,0C184.56,109.89,186.59,115.54,186.46,119.88Z" id="RightEarShadow" style="fill: rgba(0, 0, 0, 0.643);"/>
    <path class="cls-4" d="M84.67,130.74A7.13,7.13,0,0,1,83.43,132a1.53,1.53,0,0,1-.16.11,4.91,4.91,0,0,1-4.08.8.32.32,0,0,1-.13,0,7.07,7.07,0,0,1-1.55-.6c-3.72-1.93-7-7.18-7.18-12.37-.14-4.34,1.88-10,6.29-10.88a.44.44,0,0,1,.16,0A5.56,5.56,0,0,1,79,109a8.73,8.73,0,0,1,4.44,2.59,10,10,0,0,1,.71.8,14.46,14.46,0,0,1,2.52,4.24C88.44,121.48,87.35,127.53,84.67,130.74Z" id="LeftEar" style="fill: rgb(206, 145, 118);"/>
    <path class="cls-4" d="M177.77,109c-.06,1.6-.19,3.17-.37,4.77a80.18,80.18,0,0,1-4.17,18.06c-4.65,13.08-12.48,24.68-21.9,32.26-.53.42-1.07.84-1.62,1.24a45.84,45.84,0,0,1-8.25,4.88l-.22.08-.82.36-.2.07c-.64.26-1.28.5-1.95.73a1.79,1.79,0,0,1-.35.11.11.11,0,0,1-.07,0,31.73,31.73,0,0,1-9.71,1.62h-.55c-.22,0-.42,0-.65,0l-.55,0-.62,0-.33,0c-.16,0-.31,0-.47-.05a29.91,29.91,0,0,1-4.52-.8l-.71-.19-.35-.09-.78-.23-.51-.17a1,1,0,0,1-.16-.05l-.71-.26h-.06l-.67-.27-.53-.2a1.76,1.76,0,0,1-.2-.09l-.44-.17-.47-.2-.37-.18L114,170c-.24-.13-.51-.24-.73-.36l-.64-.31a5.48,5.48,0,0,0-.53-.28,47.19,47.19,0,0,1-5.1-3.22c-.6-.44-1.22-.91-1.8-1.37a58.48,58.48,0,0,1-8.58-8.52A77.1,77.1,0,0,1,83.43,132c-.16-.35-.27-.73-.4-1.1a80.37,80.37,0,0,1-3.7-17.1c0-.37-.09-.77-.11-1.15-.09-1-.18-2-.22-3.08,0-.18,0-.33,0-.51a66.73,66.73,0,0,1,1-14.74,72,72,0,0,1,5.88-17.91,65.1,65.1,0,0,1,17.06-22.44c.31-.26.63-.51.94-.75a39.71,39.71,0,0,1,24.42-8.87c9.74,0,18.38,3.7,25.61,9.6A58.18,58.18,0,0,1,164.1,64.8a73.24,73.24,0,0,1,8.62,15.47c.58,1.37,1.09,2.77,1.55,4.17a64.9,64.9,0,0,1,3.5,24.58Z" id="Head" style="fill: rgb(206, 145, 118);"/>
    <path class="cls-6" d="M 183.49 86.48 C 182.529 87.583 181.46 88.588 180.3 89.48 C 180.21 89.57 179.79 89.88 179.24 90.3 C 178.33 90.95 182.495 96.516 181.535 97.136 C 178.163 99.33 174.68 89.165 173.174 89.111 C 172.698 89.094 170.169 94.327 169.322 94.362 C 167.928 94.42 162.561 95.401 160.902 95.682 C 159.19 95.972 155.607 100.2 153.766 100.228 C 151.521 100.262 148.349 98.503 145.966 98.481 C 143.182 98.456 139.204 100.754 136.333 100.471 C 135.137 100.353 133.233 101.56 132.031 101.385 C 130.157 101.112 128.043 100.413 126.165 100.019 C 124.367 99.643 121.794 102.73 120.013 102.168 C 115.459 100.73 106.237 97.83 101.99 95.399 C 99.893 94.171 98.486 99.854 96.526 98.417 C 95.856 97.927 87.776 90.715 87.136 90.235 C 85.398 88.894 94.523 85.961 92.93 84.45 C 92.2 83.74 91.47 83.01 90.76 82.25 C 89.83 81.25 88.92 80.25 88.06 79.25 C 87.695 78.828 87.416 78.339 87.24 77.81 C 89.037 79.587 90.937 81.256 92.93 82.81 C 95.464 84.808 98.133 86.631 100.93 88.24 C 119.977 99.198 141.746 95.572 162.316 89.466 C 166.263 88.294 168.643 84.657 174.23 84.49 L 174.63 84.2 L 175.07 83.87 C 175.159 83.811 175.243 83.744 175.32 83.67 C 177.095 82.287 178.67 80.665 180 78.85 C 180.77 77.839 181.075 76.549 180.84 75.3 C 182.326 78.858 183.221 82.634 183.49 86.48 Z" id="HairsShadow" style="fill: rgb(16, 16, 16);"/>
    <path class="cls-5" d="M 180 78.85 C 178.682 80.644 177.124 82.249 175.37 83.62 C 175.293 83.694 175.209 83.761 175.12 83.82 L 174.68 84.15 L 174.28 84.44 C 173.417 85.067 171.34 84.735 170.564 85.927 C 169.594 87.418 169.91 90.445 168.558 90.975 C 166.665 91.718 163.69 89.277 161.999 90.073 C 159.797 91.1 158.012 96.316 155.558 96.259 C 153.124 96.202 152.467 94.835 150.298 93.973 C 144.907 91.83 143.474 97.085 140.634 96.484 C 138.161 95.961 134.329 97.875 131.762 97.718 C 129.98 97.609 127.721 95.778 125.944 95.59 C 124.127 95.397 122.313 98.1 120.507 97.702 C 118.457 97.251 116.063 94.702 114.054 94.058 C 112.093 93.429 108.409 95.96 106.5 95.148 C 104.031 94.098 98.89 92.573 98.435 95.253 C 97.447 101.078 93.597 94.166 91.951 92.626 C 90.655 91.414 86.736 92.106 85.62 91.226 C 83.627 89.672 82.985 85.469 81.188 83.692 C 80.698 83.202 81.129 81.169 80.689 80.709 C 79.749 79.709 84.05 74.4 83.18 73.4 C 81.75 71.697 81.75 69.213 83.18 67.51 C 86.826 63.166 91.006 59.298 95.62 56 C 96.88 55.093 98.187 54.23 99.54 53.41 C 110.116 46.935 122.279 43.518 134.68 43.54 C 137.85 43.54 146.61 43.54 154.59 46.54 C 163.14 49.74 169.33 55.81 173.59 61.75 C 176.396 65.659 178.744 69.876 180.59 74.32 C 180.725 74.639 180.813 74.976 180.85 75.32 C 181.076 76.564 180.768 77.845 180 78.85 Z" data-name="Hairs" id="Hairs-3" style="fill: rgb(16, 16, 16);"/>
    <path d="M 127.457 211.116 L 128.274 210.643 L 129.09 210.171 C 129.091 210.171 129.092 210.17 129.093 210.169 C 129.094 210.168 129.095 210.167 129.097 210.166 C 129.098 210.165 129.098 210.163 129.099 210.162 C 129.1 210.161 129.101 210.159 129.101 210.158 C 129.102 210.156 129.102 210.154 129.102 210.153 C 129.102 210.152 129.103 210.151 129.103 210.15 L 129.103 209.205 L 129.103 208.261 L 129.103 207.317 C 129.103 207.316 129.103 207.316 129.103 207.315 C 129.103 207.314 129.102 207.313 129.102 207.312 C 129.102 207.311 129.102 207.31 129.101 207.308 C 129.101 207.307 129.101 207.306 129.1 207.305 C 129.1 207.305 129.1 207.304 129.1 207.304 C 129.099 207.304 129.099 207.303 129.099 207.303 C 129.098 207.302 129.097 207.301 129.097 207.3 C 129.096 207.299 129.095 207.299 129.094 207.298 C 129.093 207.297 129.092 207.296 129.091 207.296 C 129.091 207.295 129.091 207.295 129.09 207.295 L 128.274 206.823 C 128.273 206.822 128.272 206.822 128.271 206.822 C 128.269 206.821 128.268 206.82 128.266 206.82 C 128.264 206.82 128.263 206.82 128.262 206.82 C 128.26 206.82 128.258 206.82 128.256 206.82 C 128.255 206.82 128.253 206.821 128.252 206.822 C 128.251 206.822 128.25 206.822 128.249 206.823 L 127.432 207.295 C 127.432 207.295 127.431 207.295 127.431 207.296 C 127.43 207.296 127.429 207.297 127.428 207.298 C 127.427 207.299 127.426 207.299 127.426 207.3 C 127.425 207.301 127.424 207.302 127.424 207.303 C 127.423 207.303 127.423 207.304 127.423 207.304 C 127.422 207.304 127.422 207.305 127.422 207.305 C 127.422 207.306 127.421 207.307 127.421 207.308 C 127.421 207.31 127.42 207.311 127.42 207.312 C 127.42 207.313 127.42 207.314 127.42 207.315 C 127.42 207.316 127.419 207.316 127.419 207.316 L 127.419 208.26 L 127.419 209.191 L 126.616 209.656 C 126.615 209.656 126.615 209.656 126.614 209.657 C 126.614 209.657 126.613 209.658 126.612 209.659 C 126.611 209.659 126.61 209.66 126.609 209.661 C 126.609 209.662 126.608 209.663 126.607 209.664 C 126.607 209.664 126.607 209.664 126.606 209.665 C 126.606 209.665 126.606 209.666 126.606 209.666 C 126.605 209.667 126.605 209.668 126.605 209.669 C 126.604 209.67 126.604 209.672 126.604 209.673 C 126.604 209.674 126.603 209.675 126.603 209.676 C 126.603 209.676 126.603 209.677 126.603 209.677 L 126.603 210.622 C 126.603 210.623 126.604 210.624 126.604 210.625 C 126.604 210.626 126.604 210.628 126.605 210.63 C 126.605 210.631 126.606 210.633 126.607 210.634 C 126.608 210.635 126.608 210.637 126.609 210.638 C 126.611 210.639 126.612 210.64 126.613 210.641 C 126.614 210.642 126.615 210.643 126.616 210.643 L 127.432 211.116 C 127.432 211.116 127.432 211.116 127.432 211.116 C 127.432 211.116 127.433 211.116 127.433 211.117 C 127.437 211.118 127.44 211.12 127.444 211.12 C 127.449 211.12 127.452 211.118 127.456 211.117 C 127.456 211.116 127.457 211.116 127.457 211.116 C 127.457 211.116 127.457 211.116 127.457 211.116 Z M 128.261 206.874 L 129.028 207.317 L 128.261 207.759 L 129.045 207.326 L 128.261 206.874 Z M 128.277 210.615 L 128.236 209.721 L 128.236 210.607 L 127.47 211.051 L 128.277 210.615 Z M 129.053 209.191 L 128.286 209.634 L 129.07 209.21 L 129.053 208.304 L 129.053 209.191 Z M 129.053 208.246 L 128.286 208.69 L 129.084 208.28 L 129.053 207.36 L 129.053 208.246 Z M 128.236 208.69 L 127.47 208.246 L 128.237 208.693 L 128.236 207.803 L 128.236 208.69 Z M 127.47 208.304 L 128.236 208.748 L 128.236 209.634 L 128.262 208.708 L 127.47 208.304 Z M 129.068 210.138 L 129.053 209.249 L 129.053 210.135 L 128.286 210.578 L 129.068 210.138 Z M 127.445 209.235 L 128.211 209.678 L 127.445 210.121 L 128.252 209.672 L 127.445 209.235 Z M 126.654 209.721 L 127.419 210.164 L 127.419 211.051 L 127.444 210.131 L 126.654 209.721 Z" style="filter: none; fill: rgb(255, 215, 0);"/>
    <ellipse style="stroke: rgb(0, 0, 0);" cx="149.505" cy="116.681" rx="2.769" ry="2.681"/>
    <path style="stroke: rgb(157, 89, 59);" d="M 107.537 148.455 C 108.207 150.933 111.213 153.744 112.938 155.539 C 118.473 161.298 127.334 166.695 135.491 162.763 C 139.437 160.861 143.087 156.867 145.205 153.124 C 146.358 151.088 146.825 147.948 148.125 146.029"/>
    <path style="stroke: rgba(0, 0, 0, 0); fill: rgb(255, 255, 255);" d="M 108.592 149.758 C 110.733 149.7 112.883 149.737 115.025 149.75 C 115.903 149.755 116.92 149.926 117.8 149.87 C 119.013 149.793 120.207 149.607 121.426 149.563 C 126.632 149.374 131.861 149.511 137.07 149.455 C 139.028 149.435 141.008 149.39 142.967 149.46 C 143.915 149.494 144.835 149.606 145.784 149.606 C 145.883 149.606 146.078 149.548 146.103 149.516 C 146.765 148.672 147.266 147.774 147.351 146.687 C 147.354 146.655 146.739 146.702 146.61 146.712 C 146.064 146.754 145.5 146.771 144.953 146.787 C 143.172 146.84 141.382 146.981 139.587 146.981 C 138.713 146.981 137.839 147.125 136.953 147.078 C 135.58 147.003 134.208 146.778 132.83 146.713 C 131.12 146.633 129.415 146.659 127.704 146.604 C 125.378 146.529 123.083 146.193 120.736 146.273 C 119.306 146.322 118.087 146.704 116.715 146.94 C 116.013 147.06 115.214 146.821 114.494 146.855 C 113.848 146.885 113.167 147.126 112.642 147.478 C 112.362 147.666 111.295 147.608 110.96 147.653 C 110.149 147.759 109.446 148.141 108.673 148.373 C 108.448 148.441 108.187 148.373 107.964 148.454 C 107.89 148.481 108.027 148.689 108.04 148.729 C 108.105 148.924 108.554 150.043 108.398 149.395"/>
    <path style="stroke: rgb(0, 0, 0); transform-origin: 102.855px 104.813px;" d="M 112.997 101.289 C 112.997 103.882 113.382 103.733 111.478 103.756 C 111.038 103.762 110.597 103.73 110.16 103.781 C 108.815 103.937 107.474 104.162 106.133 104.373 C 103.205 104.835 100.319 105.527 97.435 106.386 C 95.987 106.818 95.154 107.093 93.786 107.625 C 93.269 107.828 92.612 108.921 92.257 108.348 C 92.196 108.25 93.203 107.247 93.324 107.136 C 94.429 106.135 95.673 105.08 96.93 104.539 C 102.159 102.288 107.965 101.113 113.454 101.113" transform="matrix(0.987688, 0.156435, -0.156435, 0.987688, 0, 0)"/>
    <path style="stroke: rgb(0, 0, 0); transform-origin: 152.628px 104.818px;" d="M 162.794 108.344 C 162.794 105.749 163.18 105.898 161.271 105.874 C 160.83 105.869 160.389 105.901 159.95 105.849 C 158.603 105.694 157.258 105.469 155.914 105.257 C 152.979 104.796 150.086 104.104 147.195 103.245 C 145.744 102.813 144.909 102.538 143.538 102.005 C 143.019 101.803 142.361 100.71 142.005 101.284 C 141.945 101.381 142.953 102.384 143.075 102.495 C 144.182 103.496 145.429 104.551 146.689 105.092 C 151.93 107.343 157.75 108.519 163.252 108.519" transform="matrix(-0.987688, 0.156435, -0.156435, -0.987688, -0.00001, -0.000003)"/>
    <path style="fill: rgb(255, 255, 255); stroke: rgb(157, 89, 59);" d="M 140.937 158.231 C 141.528 158.772 140.062 159.238 141.285 158.164 C 142.508 157.09 141.103 158.492 141.068 158.538 C 140.763 158.935 140.291 159.199 139.864 159.443 C 139.141 159.858 138.548 160.583 137.832 160.968 C 136.971 161.432 136.149 161.74 135.265 162.133 C 133.05 163.118 130.345 164.052 127.871 163.731 C 126.512 163.554 125.211 163.015 123.894 162.671 C 122.408 162.283 119.671 161.318 118.356 160.138 C 118.25 160.043 118.174 159.929 118.088 159.832"/>
    <path style="stroke: rgb(157, 89, 59); fill: rgba(216, 216, 216, 0);" d="M 105.48 149.648 C 109.13 146.952 114.947 146.558 119.334 146.352 C 125.702 146.053 132.652 147.276 139.139 146.776 C 141.333 146.607 143.719 146.537 146.068 146.373 C 147.924 146.243 149.77 146.11 151.389 145.433"/>
    <path style="fill: rgba(216, 216, 216, 0); stroke: rgb(157, 89, 59);" d="M 149.149 144.133 C 151.621 144.133 152.898 146.178 151.451 148.05"/>
  </g>
  <path style="stroke: rgb(0, 0, 0); fill: rgba(216, 216, 216, 0);" d="M 127.484 114.706 C 127.484 118.533 127.978 122.806 127.116 126.567 C 126.12 130.915 121.856 137.561 128.998 137.561"/>
  <g transform="matrix(0.03205, 0, 0, -0.029348, 78.921341, 299.519684)" fill="#000000" stroke="none" style="visibility: hidden;">
    <path d="M1376 2959 c-16 -15 -26 -32 -22 -38 4 -6 2 -11 -3 -11 -6 0 -11 7&#10;-11 16 0 17 -23 44 -37 44 -5 0 -15 -9 -23 -19 -13 -19 -14 -19 -43 5 -17 14&#10;-33 21 -36 16 -3 -5 -33 -13 -66 -17 -65 -7 -105 -34 -105 -69 0 -11 10 -31&#10;23 -44 l22 -25 -22 12 c-13 6 -23 16 -23 21 0 10 -71 50 -88 50 -20 0 -64 -53&#10;-69 -83 -3 -18 -9 -40 -14 -50 -6 -9 -7 -22 -4 -27 10 -17 -1 -11 -38 19 -20&#10;15 -33 32 -29 36 4 5 2 5 -5 1 -6 -3 -14 -2 -18 4 -3 5 -24 8 -47 6 -122 -12&#10;-130 -163 -14 -263 32 -28 51 -29 100 -4 46 24 77 58 69 77 -7 19 12 18 42 -2&#10;23 -15 26 -14 59 19 20 18 33 37 29 40 -14 15 12 6 28 -9 24 -22 45 -12 64 28&#10;10 21 14 25 11 10 -2 -12 0 -20 4 -17 5 3 11 1 15 -5 7 -12 55 -13 71 -2 5 4&#10;18 18 27 31 15 22 15 26 -4 62 -24 48 -24 81 -1 102 31 28 37 20 37 -53 -1&#10;-39 2 -70 6 -70 4 0 10 -8 13 -18 3 -9 15 -23 26 -30 17 -10 26 -10 50 3 17 9&#10;40 13 54 9 20 -5 29 0 48 30 28 44 37 45 44 6 8 -36 42 -51 60 -25 12 16 15&#10;15 47 -9 22 -17 38 -23 42 -16 3 6 10 8 14 6 4 -3 17 3 29 14 20 19 20 19 35&#10;-3 15 -22 15 -22 47 -3 33 19 33 19 47 0 30 -42 43 -54 68 -60 36 -9 68 2 100&#10;33 33 33 69 108 59 124 -3 6 -1 29 6 50 17 49 6 63 -60 79 -39 9 -61 9 -101 0&#10;-49 -12 -53 -12 -69 10 -15 20 -23 22 -66 17 -27 -3 -57 -1 -68 5 -13 7 -26 6&#10;-43 -3 -20 -11 -28 -10 -52 4 -30 18 -63 22 -75 10 -11 -11 -39 -13 -52 -2&#10;-19 16 -58 6 -88 -22z m86 -21 c5 -96 -23 -208 -53 -208 -7 0 -8 7 -4 18 4 9&#10;10 35 13 57 4 34 3 38 -9 28 -11 -9 -19 -8 -33 3 -22 15 -56 19 -56 5 0 -4 12&#10;-25 26 -46 l25 -38 -24 -25 c-31 -30 -42 -24 -56 32 -19 77 -11 186 14 186 10&#10;0 12 -12 8 -42 -6 -40 -5 -41 18 -35 13 4 37 7 53 7 23 0 27 3 21 18 -18 43&#10;-17 52 6 61 40 16 49 13 51 -21z m116 -13 c4 -47 -26 -181 -43 -195 -10 -8&#10;-13 6 -13 68 -1 43 -6 90 -11 106 -14 36 -15 33 17 50 37 21 46 16 50 -29z&#10;m130 -26 c18 -34 32 -68 32 -75 0 -8 5 -14 11 -14 12 0 5 45 -13 93 -13 33&#10;-11 35 30 43 l32 7 0 -54 c0 -64 -37 -179 -58 -179 -9 0 -12 6 -8 16 7 17 -37&#10;106 -62 127 -16 13 -15 -1 3 -89 6 -26 3 -32 -20 -42 -33 -15 -36 -13 -37 29&#10;-4 99 22 199 51 199 4 0 22 -28 39 -61z m-478 42 c0 -9 -32 -42 -63 -64 -16&#10;-11 -17 -19 -8 -56 5 -23 19 -54 32 -67 l22 -23 -24 -20 c-13 -11 -29 -20 -36&#10;-21 -18 0 -36 77 -30 127 l5 43 -34 0 c-26 0 -34 4 -33 18 1 38 13 47 67 48&#10;30 1 59 7 65 13 13 13 37 15 37 2z m778 -37 c38 -6 39 -10 11 -40 -21 -22 -21&#10;-22 -53 -3 -57 35 -96 20 -96 -36 0 -29 22 -72 44 -87 20 -13 36 5 36 42 0 35&#10;3 39 31 45 38 9 43 4 34 -33 -10 -47 -68 -109 -104 -110 -71 -2 -107 109 -60&#10;184 33 54 40 56 157 38z m-1026 -61 c44 -46 105 -173 83 -173 -8 0 -21 13 -29&#10;29 -11 21 -25 30 -53 34 -20 4 -39 5 -41 2 -2 -2 5 -17 16 -32 l20 -28 -24&#10;-30 -23 -29 -16 37 c-8 20 -15 43 -15 51 0 10 -6 13 -15 10 -8 -4 -15 -2 -15&#10;4 0 5 7 15 15 22 8 7 15 26 15 42 0 33 25 98 37 98 5 0 25 -17 45 -37z m108&#10;-65 c0 -30 -1 -30 -14 -13 -14 19 -11 45 5 45 5 0 9 -14 9 -32z m-317 -28 c7&#10;-18 21 -33 35 -37 27 -7 42 -31 42 -72 0 -41 -38 -80 -66 -68 -3 1 -11 -9 -18&#10;-22 l-13 -23 -35 43 c-44 54 -63 93 -72 142 -7 35 -5 38 12 33 14 -5 21 -1 25&#10;14 4 15 13 20 42 20 32 0 38 -4 48 -30z" style="paint-order: stroke; fill: rgb(255, 255, 255);"/>
    <path d="M932 2788 c2 -14 11 -22 26 -23 27 -2 28 6 4 28 -25 23 -34 21 -30&#10;-5z" style="fill: rgb(255, 255, 255);"/>
    <path d="M696 2721 c-14 -15 -15 -24 -6 -40 6 -12 14 -21 18 -21 11 1 51 68&#10;44 74 -11 12 -39 5 -56 -13z" style="fill: rgb(255, 255, 255);"/>
    <path d="M755 2658 c-11 -6 -22 -13 -24 -15 -3 -2 9 -16 26 -32 31 -28 33 -28&#10;48 -11 37 41 -1 86 -50 58z" style="fill: rgb(255, 255, 255);"/>
    <path d="M2278 2806 c-20 -6 -43 -17 -50 -24 -6 -6 -17 -12 -23 -12 -21 0 -73&#10;-60 -79 -93 -10 -51 -8 -68 10 -88 18 -20 64 -26 64 -9 0 20 31 9 40 -15 5&#10;-13 23 -31 40 -40 16 -8 30 -19 30 -24 0 -5 13 -14 29 -21 24 -9 34 -9 53 3&#10;12 8 36 18 52 21 25 6 28 5 22 -11 -25 -63 -22 -73 40 -129 38 -35 68 -53 85&#10;-54 26 0 68 31 70 53 1 7 2 19 3 27 0 8 7 14 14 12 8 -1 11 2 7 8 -3 5 -1 10&#10;5 10 21 0 90 63 90 82 0 11 -4 17 -9 14 -5 -4 -15 7 -22 23 -13 29 -79 71&#10;-113 71 -9 0 -16 5 -16 12 0 9 -3 9 -12 0 -17 -17 -28 -15 -28 7 0 27 -43 76&#10;-86 96 -30 14 -41 15 -65 5 -16 -7 -34 -20 -39 -29 -8 -14 -11 -14 -20 -1 -5&#10;8 -10 27 -10 42 0 15 -10 38 -22 51 -21 22 -26 23 -60 13z m48 -88 c-3 -72&#10;-38 -178 -58 -178 -5 0 -7 19 -3 43 4 34 1 47 -16 66 -17 21 -22 22 -30 10 -5&#10;-7 -9 -21 -9 -30 0 -18 -20 -29 -51 -29 -24 0 -24 17 1 57 11 19 15 35 10 38&#10;-18 11 -11 25 12 25 12 0 31 9 42 19 25 23 76 51 93 51 9 0 12 -20 9 -72z&#10;m138 -13 c-5 -11 1 -15 20 -15 32 0 66 -32 66 -63 0 -13 -13 -34 -31 -50 -53&#10;-46 -108 -50 -120 -7 l-6 25 -7 -26 c-4 -15 -6 -35 -4 -45 2 -15 -3 -19 -26&#10;-17 -16 1 -31 4 -34 7 -14 14 36 106 83 154 53 53 69 63 59 37z m188 -122 c2&#10;-5 22 -21 46 -36 51 -33 61 -53 36 -72 -25 -19 -44 -19 -44 0 0 8 -14 30 -31&#10;50 -30 34 -33 35 -50 19 -19 -17 -18 -18 8 -34 16 -9 36 -27 47 -38 15 -18 16&#10;-24 6 -37 -20 -24 -35 -18 -61 23 -13 20 -28 37 -34 37 -5 0 -13 -18 -19 -39&#10;-8 -35 -6 -42 14 -58 12 -10 35 -18 51 -18 36 0 30 -20 -11 -39 -28 -12 -32&#10;-11 -50 11 -11 12 -22 31 -25 41 -4 11 -17 17 -36 17 -35 0 -35 2 -7 49 49 83&#10;145 157 160 124z" style="fill: rgb(255, 255, 255);"/>
    <path d="M2251 2717 c-8 -11 -6 -18 9 -32 20 -18 20 -17 20 13 0 34 -10 41&#10;-29 19z" style="fill: rgb(255, 255, 255);"/>
    <path d="M2415 2640 c-15 -28 -14 -30 10 -46 37 -24 104 -2 91 31 -4 12 -16&#10;16 -43 13 -32 -2 -38 0 -35 15 4 26 -6 21 -23 -13z" style="fill: rgb(255, 255, 255);"/>
    <path d="M 1212 2657 C 1206 2650 1200 2620 1198 2590 C 1196 2552 1190 2531 1178 2522 C 1159 2508 1152 2464 1170 2475 C 1176 2478 1180 2474 1180 2466 C 1180 2458 1172 2446 1163 2441 C 1153 2436 1125 2413 1101 2391 C 1077 2368 1052 2350 1047 2350 C 1041 2350 1040 2353 1043 2356 C 1046 2360 1045 2371 1039 2382 C 1023 2411 1055 2443 1091 2435 C 1106 2432 1121 2434 1125 2439 C 1128 2446 1122 2450 1110 2450 C 1098 2450 1091 2453 1094 2458 C 1096 2462 1087 2471 1073 2477 C 1050 2488 1048 2487 1053 2468 C 1057 2456 1055 2451 1050 2456 C 1037 2470 1027 2520 1037 2520 C 1052 2520 1100 2495 1100 2488 C 1100 2483 1106 2480 1112 2480 C 1119 2480 1115 2489 1104 2501 C 1081 2523 996 2537 976 2522 C 970 2517 953 2510 939 2507 C 925 2503 896 2484 874 2463 C 853 2443 810 2414 778 2399 C 715 2368 691 2344 740 2361 C 756 2367 773 2376 776 2381 C 785 2396 813 2391 806 2375 C 803 2367 810 2354 823 2345 C 850 2326 856 2326 864 2347 C 868 2357 868 2361 864 2357 C 855 2348 820 2379 820 2397 C 820 2404 826 2410 834 2410 C 842 2410 865 2426 884 2445 C 926 2485 923 2485 955 2464 C 983 2446 1008 2454 989 2476 C 977 2491 983 2520 1000 2520 C 1005 2520 1010 2510 1010 2498 C 1010 2486 1018 2468 1027 2458 C 1040 2444 1041 2437 1032 2428 C 1023 2419 1020 2420 1020 2435 C 1020 2453 1020 2453 1006 2435 C 991 2415 995 2386 1015 2370 C 1023 2364 1027 2353 1025 2347 C 1022 2340 1051 2303 1088 2264 C 1150 2197 1159 2192 1207 2185 C 1250 2180 1265 2172 1290 2144 C 1319 2111 1328 2090 1313 2090 C 1309 2090 1295 2102 1282 2118 C 1262 2141 1261 2142 1274 2120 C 1283 2107 1290 2088 1290 2078 C 1290 2048 1265 2058 1255 2093 C 1246 2120 1236 2129 1183 2150 C 1134 2170 1107 2190 1058 2243 C 1023 2280 990 2310 983 2310 C 977 2310 970 2296 968 2280 C 964 2256 967 2250 977 2255 C 999 2263 1030 2242 1030 2220 C 1030 2196 1017 2194 1000 2215 C 993 2223 983 2230 977 2230 C 970 2230 978 2218 994 2203 C 1010 2187 1024 2180 1026 2185 C 1040 2220 1048 2223 1071 2201 C 1095 2179 1095 2178 1075 2164 C 1055 2149 998 2152 992 2169 C 991 2173 983 2186 975 2196 C 963 2212 959 2213 951 2201 C 940 2184 952 2170 1000 2145 C 1027 2131 1040 2130 1070 2139 C 1100 2148 1115 2146 1160 2130 C 1190 2119 1217 2105 1221 2098 C 1225 2091 1235 2076 1243 2065 C 1256 2048 1256 2043 1243 2023 C 1234 2009 1232 2000 1238 2000 C 1244 2000 1253 2006 1257 2014 C 1274 2044 1353 2100 1377 2100 C 1402 2100 1403 2100 1385 2080 C 1375 2069 1372 2060 1378 2060 C 1384 2060 1391 2064 1395 2069 C 1398 2074 1415 2082 1433 2086 C 1464 2093 1462 2094 1391 2117 C 1323 2138 1280 2163 1280 2180 C 1280 2184 1293 2185 1308 2182 C 1361 2175 1464 2299 1479 2390 C 1485 2422 1488 2425 1516 2422 C 1562 2417 1696 2455 1741 2485 C 1763 2499 1786 2522 1792 2535 C 1808 2570 1820 2566 1820 2525 C 1820 2495 1825 2488 1861 2470 C 1883 2458 1940 2440 1986 2430 C 2033 2420 2078 2406 2087 2399 C 2100 2387 2109 2393 2149 2438 C 2174 2467 2201 2490 2208 2490 C 2225 2490 2223 2463 2205 2456 C 2178 2446 2189 2404 2238 2329 C 2264 2288 2297 2235 2312 2210 C 2353 2139 2370 2128 2442 2126 C 2501 2125 2534 2109 2492 2102 C 2449 2095 2400 1883 2426 1816 C 2438 1784 2446 1802 2447 1863 C 2447 1927 2461 1970 2481 1970 C 2487 1970 2489 1962 2486 1953 C 2473 1921 2468 1851 2474 1815 C 2479 1788 2490 1774 2516 1758 C 2535 1747 2550 1732 2550 1724 C 2550 1707 2545 1707 2521 1721 C 2511 1728 2491 1730 2477 1726 L 2450 1720 L 2448 1497 C 2446 1257 2443 1023 2441 1002 C 2440 992 2422 990 2373 992 L 2305 995 L 2302 1198 L 2300 1400 L 2259 1437 C 2236 1458 2200 1500 2179 1531 C 2158 1563 2122 1609 2100 1635 C 2078 1661 2051 1699 2040 1721 C 2029 1742 2015 1759 2009 1757 C 2003 1756 1989 1772 1978 1793 C 1944 1856 1947 1827 1980 1759 C 1998 1724 2021 1673 2031 1645 L 2050 1595 L 2046 1634 C 2042 1662 2044 1670 2052 1662 C 2065 1649 2102 1568 2092 1574 C 2087 1577 2078 1575 2071 1570 C 2060 1564 2063 1559 2080 1550 C 2095 1542 2100 1542 2096 1549 C 2092 1555 2094 1560 2099 1560 C 2112 1560 2150 1524 2150 1512 C 2150 1508 2170 1483 2195 1456 C 2273 1374 2271 1382 2267 1199 C 2265 1109 2267 1024 2272 1011 C 2286 973 2310 961 2372 960 C 2429 960 2448 970 2469 1009 C 2478 1026 2485 1337 2480 1551 C 2478 1660 2492 1719 2511 1689 C 2518 1678 2520 1678 2520 1688 C 2520 1695 2525 1698 2530 1695 C 2536 1692 2547 1695 2555 1704 C 2572 1721 2575 1750 2559 1750 C 2554 1750 2552 1755 2555 1760 C 2558 1766 2556 1770 2550 1770 C 2545 1770 2531 1784 2520 1802 C 2504 1828 2501 1848 2505 1909 C 2508 1978 2525 2049 2543 2066 C 2557 2081 2549 2112 2524 2137 C 2501 2159 2493 2162 2451 2156 C 2406 2150 2402 2152 2372 2185 C 2354 2204 2332 2233 2322 2249 C 2313 2265 2286 2309 2263 2347 C 2223 2412 2221 2418 2233 2449 C 2244 2478 2243 2483 2226 2496 C 2196 2517 2181 2513 2143 2475 C 2107 2439 2074 2431 2028 2449 C 2015 2454 1983 2463 1955 2469 C 1904 2482 1836 2525 1845 2540 C 1848 2544 1841 2559 1830 2571 L 1811 2595 L 1787 2570 C 1717 2498 1690 2480 1643 2476 C 1630 2476 1620 2472 1620 2468 C 1620 2463 1609 2460 1596 2460 C 1582 2460 1569 2456 1566 2451 C 1563 2446 1546 2445 1528 2449 C 1503 2454 1492 2451 1473 2432 C 1460 2420 1450 2405 1450 2400 C 1450 2387 1429 2387 1374 2401 C 1339 2410 1330 2417 1330 2435 C 1330 2459 1332 2459 1420 2464 C 1453 2466 1483 2469 1488 2470 C 1500 2475 1514 2478 1533 2479 C 1542 2479 1558 2496 1567 2515 C 1576 2534 1587 2547 1592 2544 C 1603 2537 1589 2571 1570 2596 C 1555 2616 1513 2639 1524 2621 C 1527 2616 1517 2608 1502 2602 C 1486 2597 1467 2585 1458 2576 C 1441 2560 1410 2564 1410 2582 C 1410 2597 1367 2580 1347 2556 L 1330 2535 L 1309 2559 C 1298 2573 1286 2597 1283 2612 C 1280 2628 1268 2647 1256 2655 C 1231 2673 1225 2674 1212 2657 Z M 1251 2633 C 1257 2617 1268 2590 1276 2573 C 1284 2554 1285 2540 1280 2540 C 1274 2540 1270 2536 1270 2530 C 1270 2525 1284 2520 1300 2520 C 1333 2520 1339 2506 1313 2492 C 1297 2483 1298 2453 1315 2408 C 1320 2395 1315 2388 1296 2380 C 1282 2375 1270 2366 1270 2360 C 1270 2355 1263 2350 1254 2350 C 1233 2350 1210 2326 1210 2303 C 1210 2283 1192 2260 1178 2260 C 1173 2260 1172 2271 1176 2285 C 1183 2315 1170 2318 1152 2290 C 1145 2279 1133 2270 1125 2270 C 1107 2270 1106 2282 1122 2298 C 1136 2312 1125 2326 1096 2332 C 1069 2336 1110 2365 1110 2370 C 1110 2376 1119 2380 1130 2380 C 1141 2380 1150 2386 1150 2393 C 1151 2405 1184 2450 1193 2450 C 1196 2450 1200 2441 1203 2430 C 1210 2402 1230 2405 1230 2435 C 1230 2450 1221 2466 1205 2476 C 1174 2496 1173 2506 1201 2513 C 1219 2518 1222 2524 1217 2549 C 1213 2566 1215 2582 1220 2585 C 1225 2588 1226 2606 1223 2625 C 1216 2668 1235 2673 1251 2633 Z M 1550 2589 C 1550 2582 1558 2571 1568 2564 C 1584 2552 1584 2551 1568 2545 C 1558 2541 1550 2527 1550 2514 C 1550 2499 1544 2490 1535 2490 C 1527 2490 1520 2497 1520 2505 C 1520 2513 1516 2520 1510 2520 C 1505 2520 1500 2516 1500 2511 C 1500 2503 1446 2470 1433 2470 C 1423 2470 1433 2497 1453 2524 C 1466 2541 1479 2563 1483 2572 C 1486 2582 1495 2587 1504 2584 C 1512 2581 1521 2583 1525 2589 C 1533 2603 1550 2603 1550 2589 Z M 1416 2548 C 1420 2535 1418 2524 1411 2522 C 1405 2520 1400 2511 1400 2502 C 1400 2490 1390 2484 1370 2483 C 1340 2481 1328 2501 1350 2515 C 1356 2518 1360 2530 1360 2540 C 1360 2556 1371 2564 1402 2569 C 1406 2569 1412 2560 1416 2548 Z M 1363 2380 C 1367 2364 1374 2362 1405 2367 C 1433 2371 1441 2370 1436 2362 C 1432 2355 1435 2350 1445 2350 C 1467 2350 1455 2333 1418 2314 C 1393 2301 1386 2300 1379 2312 C 1373 2321 1370 2314 1370 2293 C 1370 2256 1364 2253 1339 2276 C 1325 2289 1319 2289 1301 2279 C 1275 2262 1262 2275 1278 2300 C 1285 2312 1286 2320 1280 2320 C 1256 2320 1273 2348 1299 2353 C 1317 2357 1331 2367 1335 2380 C 1343 2405 1356 2406 1363 2380 Z M 1263 2276 C 1266 2269 1287 2260 1309 2256 C 1332 2253 1350 2246 1350 2241 C 1350 2236 1330 2225 1306 2217 C 1272 2205 1254 2204 1221 2213 C 1183 2223 1165 2240 1191 2240 C 1197 2240 1211 2251 1222 2265 C 1244 2293 1255 2296 1263 2276 Z M 2530 2097 C 2530 2096 2521 2077 2510 2055 C 2499 2033 2490 2008 2490 1998 C 2490 1988 2486 1980 2480 1980 C 2458 1980 2477 2076 2503 2092 C 2515 2100 2530 2102 2530 2097 Z"/>
    <path d="M1260 2427 c0 -7 -14 -18 -30 -24 -17 -6 -28 -8 -25 -3 3 5 0 12 -6&#10;16 -8 5 -10 -3 -7 -25 5 -33 0 -38 -21 -18 -12 11 -8 0 16 -42 6 -10 31 22 27&#10;34 -7 17 6 24 58 33 l42 7 -27 18 c-20 13 -27 14 -27 4z"/>
    <path d="M388 2601 c-8 -15 -12 -55 -11 -105 1 -80 1 -81 40 -114 63 -54 70&#10;-56 98 -27 13 15 25 36 27 48 2 16 11 23 31 25 l29 4 -32 28 c-29 26 -34 27&#10;-72 17 l-41 -10 27 -22 c24 -19 27 -27 21 -54 -9 -40 -24 -39 -53 3 -13 19&#10;-29 33 -35 30 -9 -3 -13 23 -15 87 l-3 92 31 -7 c44 -8 111 -57 151 -110 19&#10;-25 37 -46 42 -46 11 0 -4 52 -20 70 -49 54 -89 90 -100 90 -6 0 -16 6 -20 13&#10;-4 6 -25 12 -45 12 -29 0 -40 -5 -50 -24z" style="fill: rgb(255, 255, 255);"/>
    <path d="M430 2528 c0 -29 16 -41 40 -28 24 13 18 24 -17 35 -16 4 -23 2 -23&#10;-7z" style="fill: rgb(255, 255, 255);"/>
    <path d="M1761 2466 c-18 -21 -101 -54 -174 -68 -69 -13 -70 -14 -33 -61 13&#10;-17 16 -17 72 4 112 41 164 82 164 130 0 13 -16 11 -29 -5z"/>
    <path d="M1804 2444 c4 -33 13 -39 116 -70 47 -15 92 -32 101 -40 22 -20 34&#10;-17 53 11 15 23 15 25 -3 35 -11 5 -35 10 -54 10 -48 0 -128 26 -171 55 -20&#10;14 -39 25 -41 25 -2 0 -2 -12 -1 -26z"/>
    <path d="M910 2405 c-9 -10 -9 -15 -1 -15 6 0 11 -4 11 -10 0 -5 -6 -10 -14&#10;-10 -16 0 -41 -54 -32 -69 4 -6 19 -3 39 9 18 11 40 20 50 20 23 0 23 43 0 70&#10;-21 24 -36 25 -53 5z" style="fill: rgb(4, 118, 57);"/>
    <path d="M2134 2389 c-18 -20 -17 -22 21 -95 28 -52 57 -91 96 -125 92 -80 97&#10;-63 18 59 -38 59 -77 124 -86 145 -19 43 -23 44 -49 16z"/>
    <path d="M1800 2374 c0 -26 81 -81 133 -91 18 -3 40 -10 50 -15 19 -10 47 5&#10;47 23 0 15 -63 49 -91 49 -14 0 -52 13 -83 28 l-56 29 0 -23z"/>
    <path d="M1715 2355 c-22 -14 -61 -32 -87 -41 -53 -17 -52 -17 -38 -45 13 -23&#10;22 -23 87 -4 61 18 103 55 103 90 0 31 -14 31 -65 0z"/>
    <path d="M1486 2305 c-17 -42 -96 -135 -117 -135 -5 0 -9 -4 -9 -10 0 -5 16&#10;-12 35 -16 19 -3 38 -10 41 -15 8 -13 75 47 96 85 9 17 17 41 18 54 0 26 -26&#10;82 -39 82 -5 0 -16 -20 -25 -45z m29 -54 c-3 -12 -15 -26 -26 -32 -19 -9 -18&#10;-8 3 25 25 37 34 40 23 7z"/>
    <path d="M700 2310 c-17 -17 -28 -35 -24 -41 3 -6 -3 -5 -15 3 -12 7 -19 19&#10;-16 27 10 25 -35 -20 -62 -62 -13 -21 -28 -35 -32 -32 -5 2 -8 -1 -8 -8 1 -6&#10;-6 -45 -16 -85 -25 -106 -16 -202 29 -305 19 -44 33 -81 31 -84 -3 -2 7 -17&#10;22 -32 14 -15 36 -40 49 -55 16 -21 22 -23 22 -11 0 9 6 15 13 12 6 -2 11 -10&#10;9 -16 -1 -6 2 -11 8 -11 5 0 7 -6 4 -14 -3 -7 10 -30 29 -50 19 -19 33 -37 31&#10;-39 -4 -4 123 -89 148 -99 46 -19 -3 -42 -62 -30 -30 7 -38 4 -57 -19 -13 -15&#10;-23 -30 -23 -33 0 -4 -13 -21 -30 -39 -16 -18 -30 -37 -30 -43 0 -7 -15 -27&#10;-32 -46 -18 -18 -42 -45 -54 -58 -25 -30 -115 -110 -123 -110 -3 0 -26 -18&#10;-50 -40 -25 -22 -48 -40 -52 -40 -5 0 -19 -10 -31 -23 -44 -42 -101 -87 -111&#10;-87 -6 0 -8 -3 -4 -6 3 -3 -3 -15 -14 -27 -40 -43 -14 -69 68 -67 108 4 237&#10;-11 309 -36 83 -28 106 -29 165 -9 90 32 126 36 171 19 46 -17 92 -20 148 -8&#10;85 16 141 16 160 -1 10 -9 31 -16 47 -15 50 4 57 1 98 -36 l40 -35 -30 5 c-24&#10;5 -115 -9 -180 -28 -104 -29 -114 -36 -139 -83 -9 -18 -20 -33 -24 -33 -12 0&#10;-12 -54 0 -78 9 -16 9 -28 2 -40 -21 -33 -34 -25 -34 22 0 49 -22 115 -43 128&#10;-25 16 -63 7 -95 -23 l-33 -30 25 -75 c14 -41 26 -81 26 -89 0 -17 -16 -20&#10;-25 -5 -18 28 -78 1 -104 -48 -10 -19 -9 -27 10 -53 26 -36 55 -49 114 -49 58&#10;0 88 28 105 98 14 59 37 66 32 10 -2 -20 1 -39 7 -43 6 -3 11 -15 11 -25 0&#10;-25 40 -36 72 -20 12 7 35 26 49 43 l27 30 18 -29 c33 -51 42 -58 60 -43 21&#10;17 54 19 54 3 0 -20 41 -27 75 -14 34 13 45 26 45 56 0 14 14 31 40 48 22 14&#10;40 33 40 40 0 8 5 16 10 18 6 2 13 32 16 68 2 35 7 66 9 68 3 3 -9 18 -25 34&#10;-17 15 -30 31 -30 34 0 2 15 2 34 -1 21 -4 36 -2 41 5 5 7 11 8 19 1 9 -7 20&#10;-3 38 14 19 17 28 21 37 12 11 -11 110 14 186 47 59 26 81 34 124 47 63 19&#10;126 62 161 111 27 36 31 49 26 80 -6 35 -4 38 16 38 17 0 19 3 9 9 -9 6 -10&#10;11 -2 15 6 4 11 25 11 46 0 42 -14 58 -83 95 -43 23 -45 28 -14 43 22 10 22&#10;11 -5 11 -38 1 -50 -42 -19 -70 12 -11 25 -18 30 -15 4 3 20 0 34 -7 45 -21&#10;47 -100 3 -136 -13 -11 -13 -16 -1 -35 14 -20 12 -25 -26 -69 -23 -26 -47 -47&#10;-54 -47 -7 0 -23 -9 -36 -19 -18 -14 -28 -17 -42 -9 -11 5 -27 8 -36 5 -23 -6&#10;-36 12 -38 52 -3 42 -8 47 -28 28 -20 -20 -19 -29 4 -56 11 -12 26 -32 35 -44&#10;12 -18 15 -19 15 -5 1 10 8 16 21 15 27 -2 20 -20 -14 -32 -19 -6 -33 -6 -47&#10;3 -11 7 -24 10 -28 7 -5 -3 -11 1 -14 9 -6 15 -55 27 -62 15 -3 -4 9 -19 27&#10;-33 27 -22 30 -28 18 -36 -8 -5 -23 -10 -33 -10 -10 0 -41 -12 -69 -26 l-52&#10;-26 -14 21 c-9 13 -25 21 -43 21 -16 0 -39 6 -50 13 -17 9 -23 9 -26 0 -3 -7&#10;-12 -13 -21 -13 -12 0 -11 -4 6 -23 25 -27 29 -49 7 -41 -8 4 -15 13 -15 20 0&#10;8 -7 17 -15 20 -8 4 -15 14 -15 23 0 29 90 56 105 31 9 -15 25 -12 25 5 0 17&#10;-2 16 63 19 51 3 69 12 43 22 -22 9 -20 24 4 24 10 0 23 6 27 13 4 7 24 13 43&#10;13 29 -1 36 3 38 22 3 22 45 72 61 72 13 0 49 -44 53 -65 5 -28 76 -35 84 -8&#10;3 10 14 34 24 54 14 27 16 39 7 48 -13 13 -53 15 -61 2 -3 -4 -18 -7 -33 -5&#10;-23 4 -25 3 -8 -5 11 -4 35 -6 53 -3 34 5 42 -7 17 -28 -8 -7 -15 -18 -15 -25&#10;0 -26 -29 -23 -52 4 -12 15 -33 34 -46 40 -26 14 -24 38 2 33 9 -2 19 4 22 12&#10;5 12 11 13 24 6 12 -7 28 -6 46 0 19 8 30 8 38 0 18 -18 26 -11 20 19 -4 16&#10;-1 32 5 35 12 7 15 48 5 58 -12 13 -105 -28 -122 -53 -24 -35 -74 -81 -164&#10;-151 -43 -33 -78 -64 -78 -69 0 -5 -8 -9 -17 -9 -9 0 -30 -12 -45 -27 -15 -15&#10;-41 -28 -57 -29 -16 -1 -51 -5 -78 -9 -39 -5 -52 -3 -62 9 -13 16 -36 12 -26&#10;-4 3 -5 1 -11 -5 -15 -5 -3 -10 -2 -10 2 0 5 -21 24 -47 43 -37 26 -58 34 -93&#10;34 -33 1 -46 5 -48 17 -2 13 7 18 43 21 25 2 51 0 58 -3 7 -4 23 -10 37 -14&#10;l25 -8 -25 21 c-23 20 -23 21 -5 21 11 0 41 -4 68 -8 26 -4 47 -4 47 0 0 4&#10;-12 10 -27 12 -16 3 0 3 35 2 66 -3 75 0 40 15 -22 8 -22 9 5 9 16 1 50 16 75&#10;33 26 18 49 34 51 35 2 2 2 5 -1 8 -3 3 -20 -6 -37 -21 -25 -21 -35 -24 -44&#10;-15 -9 9 -6 16 13 31 17 14 20 20 10 20 -9 0 -21 -5 -27 -11 -14 -14 -34 -3&#10;-27 16 4 9 -3 15 -23 17 -20 2 -27 8 -25 20 2 11 -7 18 -27 23 -41 9 -107 68&#10;-127 115 -10 22 -22 40 -26 40 -5 0 -4 -10 3 -21 9 -17 8 -20 -3 -17 -7 3 -18&#10;14 -24 26 -6 12 -14 19 -18 15 -10 -10 -26 17 -26 47 l-1 25 -10 -23 c-9 -23&#10;-29 -22 -29 2 0 7 -7 21 -16 32 -13 16 -15 16 -10 2 7 -23 -10 -23 -18 0 -3 9&#10;-12 35 -20 57 -14 39 -14 39 -15 10 -2 -29 -2 -29 -16 -11 -8 11 -15 31 -15&#10;45 0 14 -5 33 -11 41 -7 11 -8 5 -3 -22 4 -25 2 -38 -5 -38 -6 0 -14 18 -17&#10;40 -5 30 -10 38 -19 30 -6 -5 -15 -7 -18 -3 -11 10 -8 48 4 60 5 5 13 36 16&#10;67 5 46 2 60 -13 77 -13 14 -17 32 -15 65 2 41 1 45 -14 36 -17 -9 -42 -1 -97&#10;29 -10 5 -23 9 -30 9 -7 0 -28 18 -47 40 -19 22 -40 40 -45 40 -11 0 -34 40&#10;-73 125 -25 54 -25 195 0 220 9 9 17 21 17 26 0 6 5 7 10 4 6 -3 10 0 10 8 0&#10;8 17 35 37 60 34 41 39 44 65 35 15 -6 25 -15 22 -20 -4 -6 -1 -9 7 -6 8 3 16&#10;13 17 23 3 11 0 15 -8 10 -6 -4 -18 1 -25 11 -8 11 -15 15 -15 10 0 -5 -6 -3&#10;-14 3 -11 9 -23 2 -57 -33 -24 -24 -59 -66 -78 -92 -31 -43 -35 -57 -39 -128&#10;-4 -59 -1 -87 11 -110 8 -17 21 -47 28 -66 7 -19 19 -43 28 -53 9 -11 16 -24&#10;16 -30 0 -15 27 -57 36 -57 4 0 5 10 1 22 -3 14 -2 19 6 14 7 -4 12 -16 12&#10;-26 0 -14 5 -18 16 -13 13 5 15 2 10 -13 -4 -14 2 -23 24 -36 17 -9 30 -13 30&#10;-8 0 14 27 12 36 -1 3 -6 1 -14 -5 -18 -7 -5 0 -15 20 -30 17 -13 34 -20 37&#10;-16 4 3 -4 15 -18 25 -34 26 -19 35 22 14 44 -22 44 -22 23 -38 -18 -13 -18&#10;-15 11 -39 l31 -26 -12 -63 c-13 -71 -11 -70 -100 -31 -75 33 -153 85 -183&#10;124 -13 16 -27 27 -32 24 -5 -3 -11 -1 -14 4 -4 5 -2 12 3 16 6 3 0 20 -12 40&#10;-16 25 -29 34 -49 35 -19 0 -36 12 -58 40 -18 23 -30 43 -27 46 9 9 27 -6 27&#10;-22 0 -8 6 -14 13 -14 7 0 23 -9 36 -21 12 -12 25 -19 28 -15 9 9 -5 36 -24&#10;44 -51 22 -80 47 -80 70 0 13 -12 36 -27 51 -28 29 -48 101 -27 101 6 0 11 -6&#10;11 -13 0 -21 37 -50 55 -43 14 5 14 8 -2 29 -10 14 -31 28 -48 33 -34 10 -48&#10;44 -18 44 17 1 17 1 1 11 -10 5 -18 21 -18 34 0 28 17 34 27 9 3 -9 13 -14 24&#10;-11 11 3 22 1 25 -4 12 -19 24 -7 24 24 0 17 7 45 15 60 24 46 113 161 135&#10;175 11 7 20 22 20 35 0 14 -3 18 -8 10 -5 -8 -13 -9 -22 -3 -24 16 -38 12 -70&#10;-20z m40 -10 c9 -16 8 -20 -5 -20 -9 0 -15 -9 -15 -21 0 -24 -23 -51 -42 -47&#10;-6 2 -13 -3 -14 -9 -3 -27 -5 -27 -19 -9 -19 25 -33 12 -17 -14 7 -11 12 -24&#10;12 -29 0 -13 -42 -21 -56 -10 -9 7 -11 2 -10 -18 1 -16 5 -34 10 -41 11 -18 2&#10;-25 -23 -17 -12 3 -21 13 -21 22 0 36 25 94 47 108 14 9 23 25 23 41 0 28 28&#10;44 40 23 5 -7 6 -17 4 -21 -7 -11 3 -10 25 2 10 5 22 25 25 45 8 39 20 45 36&#10;15z m123 -954 c4 -10 1 -13 -9 -9 -7 3 -14 0 -14 -6 0 -15 21 -13 44 4 12 9&#10;44 14 92 14 70 0 75 -1 88 -27 8 -15 36 -48 63 -74 26 -26 53 -53 59 -60 5 -7&#10;27 -26 49 -43 21 -16 43 -34 49 -40 6 -5 34 -28 61 -50 28 -22 61 -51 75 -64&#10;13 -14 45 -40 70 -59 75 -57 120 -101 120 -117 0 -17 -16 -20 -25 -5 -3 6 -18&#10;10 -32 10 -21 0 -24 -2 -13 -15 11 -13 7 -15 -26 -14 -32 0 -36 2 -19 10 17 8&#10;17 9 -5 4 -14 -2 -41 -5 -60 -6 -30 0 -32 -2 -15 -10 16 -7 13 -8 -13 -4 -18&#10;2 -31 1 -28 -4 3 -4 -15 -8 -40 -9 -25 0 -51 -6 -59 -12 -10 -8 -30 -10 -55&#10;-6 -27 4 -48 2 -63 -8 -12 -7 -40 -17 -62 -20 -22 -4 -47 -9 -56 -12 -9 -3&#10;-23 1 -30 9 -17 17 -78 47 -94 47 -7 0 -18 -7 -25 -15 -9 -11 -17 -12 -23 -6&#10;-7 7 -20 5 -40 -5 -58 -31 -107 -44 -125 -34 -45 26 -125 47 -183 49 -35 1&#10;-68 2 -74 3 -5 0 -18 -3 -27 -7 -11 -4 -18 -3 -18 4 0 6 34 34 75 63 76 53&#10;104 87 41 50 -19 -11 -43 -19 -53 -16 -11 3 -34 -10 -58 -31 -37 -32 -38 -34&#10;-12 -25 22 8 28 7 25 -2 -3 -7 -27 -16 -54 -19 -27 -4 -61 -12 -76 -18 -43&#10;-16 -47 7 -7 43 19 17 106 87 192 155 87 68 167 137 179 154 12 16 48 59 80&#10;96 32 36 65 84 74 108 17 44 46 58 57 29z m1247 -401 c0 -8 -9 -15 -20 -15&#10;-13 0 -18 -5 -14 -15 5 -11 -1 -15 -25 -15 -30 0 -41 13 -21 25 6 4 8 10 5 15&#10;-5 7 12 12 63 19 6 0 12 -6 12 -14z m-590 -338 c0 -8 -9 -22 -20 -32 -26 -23&#10;-26 -39 -1 -25 29 15 41 12 41 -9 0 -17 -7 -19 -50 -18 -54 1 -63 13 -29 37&#10;12 8 25 25 30 38 9 24 29 30 29 9z m-50 -11 c0 -18 -26 -39 -39 -31 -6 3 -19&#10;-3 -31 -15 -25 -25 -36 -25 -43 0 -3 11 -11 20 -17 20 -10 0 -10 -3 0 -15 6&#10;-8 9 -19 5 -25 -10 -16 -47 19 -41 37 4 9 -3 8 -19 -4 -13 -10 -25 -21 -25&#10;-25 0 -14 -69 -40 -89 -33 -11 3 -23 1 -27 -6 -4 -8 -3 -9 4 -5 19 11 14 -9&#10;-8 -34 -11 -13 -20 -32 -20 -42 0 -11 -5 -18 -12 -15 -17 5 -14 68 4 82 7 5&#10;14 17 16 25 9 38 110 75 233 85 46 4 86 9 88 11 9 9 21 3 21 -10z m198 -43 c2&#10;-8 -5 -13 -17 -13 -12 0 -21 6 -21 16 0 18 31 15 38 -3z m-358 -28 c7 -8 21&#10;-15 30 -15 10 0 25 -3 34 -6 14 -5 14 -9 -3 -33 -11 -15 -23 -42 -28 -61 -11&#10;-43 -23 -42 -39 5 -6 20 -20 45 -30 56 -14 16 -15 24 -6 44 13 29 24 31 42 10z&#10;m-302 -74 c17 -56 15 -121 -7 -190 -13 -42 -15 -61 -7 -64 21 -8 -4 -20 -52&#10;-25 -48 -4 -102 13 -117 39 -7 11 41 69 57 69 4 0 8 -11 8 -25 0 -30 45 -64&#10;62 -47 22 22 13 124 -15 186 -15 32 -27 62 -27 66 0 9 46 28 71 29 10 1 20&#10;-13 27 -38z m230 32 c-1 -5 10 -32 25 -61 17 -32 31 -81 37 -125 13 -104 13&#10;-127 -5 -127 -8 0 -15 7 -15 16 0 30 -23 93 -32 88 -4 -3 -25 5 -44 17 l-37&#10;22 5 -34 c3 -19 7 -40 9 -48 2 -9 -13 -24 -40 -39 l-43 -25 4 70 c3 54 1 70&#10;-9 66 -21 -8 -15 15 7 27 11 6 31 32 44 58 26 49 70 102 86 102 6 0 9 -3 8 -7z&#10;m285 -4 c37 -17 49 -51 37 -105 -13 -56 -33 -88 -66 -102 -38 -18 -49 -15 -64&#10;16 -7 15 -15 22 -17 14 -3 -6 7 -33 21 -59 30 -52 25 -64 -25 -66 -30 -2 -33&#10;1 -42 38 -12 54 -3 171 18 223 16 39 35 56 35 32 0 -6 12 -4 28 4 33 18 44 19&#10;75 5z" style="fill: rgb(4, 118, 57);"/>
    <path d="M1099 1173 c5 -10 23 -31 40 -47 24 -23 31 -26 31 -13 0 10 5 14 15&#10;11 23 -9 18 -1 -17 32 -18 16 -26 21 -19 11 23 -30 1 -34 -24 -4 -27 31 -40&#10;36 -26 10z"/>
    <path d="M890 1151 c0 -17 -4 -33 -10 -36 -5 -3 -10 3 -10 14 0 39 -17 21 -23&#10;-24 -4 -25 -13 -58 -21 -73 -7 -15 -17 -38 -20 -52 l-7 -25 20 25 c11 14 21&#10;30 21 35 0 17 31 56 39 50 5 -2 0 -30 -10 -61 -21 -64 -23 -74 -11 -74 5 0 14&#10;25 21 55 7 30 17 57 22 60 11 8 -14 35 -33 35 -8 0 -6 5 5 11 35 21 51 -24 33&#10;-96 -6 -25 -4 -24 10 8 9 20 20 37 24 37 4 0 10 7 13 14 4 10 1 13 -8 10 -14&#10;-6 -35 49 -35 94 0 12 -4 22 -10 22 -5 0 -10 -13 -10 -29z"/>
    <path d="M1057 1149 c-11 -39 -8 -52 8 -45 8 3 28 1 43 -4 l27 -10 -26 22&#10;c-14 13 -31 31 -36 42 -9 17 -11 17 -16 -5z"/>
    <path d="M713 1131 c4 -17 1 -21 -11 -19 -9 1 -17 -2 -17 -7 0 -6 4 -9 9 -7 5&#10;2 -1 -13 -12 -32 -15 -26 -17 -33 -6 -29 8 3 21 18 30 34 17 33 68 63 92 54&#10;14 -5 13 -8 -7 -20 -14 -7 -30 -11 -35 -10 -11 4 -81 -84 -73 -91 2 -3 18 10&#10;36 28 38 39 40 27 5 -24 -15 -21 -24 -41 -21 -44 5 -6 80 103 91 131 2 6 7 7&#10;11 3 4 -4 -2 -24 -14 -44 -26 -43 -23 -53 6 -21 12 13 23 41 25 68 l5 45 -34&#10;2 c-22 2 -35 -2 -39 -13 -3 -8 -13 -15 -21 -15 -8 0 -12 4 -8 9 3 5 0 13 -6&#10;17 -9 5 -10 0 -6 -15z"/>
    <path d="M1000 1145 c0 -4 7 -20 16 -36 17 -34 12 -48 -10 -30 -11 9 -15 9&#10;-19 -1 -2 -7 -7 2 -11 20 -4 17 -14 32 -22 32 -19 0 -18 -25 4 -46 13 -14 17&#10;-33 16 -91 -1 -40 2 -73 7 -73 5 0 9 30 9 66 0 53 3 65 14 61 8 -3 17 -1 19 6&#10;2 7 8 -31 12 -83 7 -81 10 -90 17 -60 9 43 6 140 -5 140 -5 0 -7 8 -6 18 2 21&#10;-22 82 -33 82 -4 0 -8 -2 -8 -5z"/>
    <path d="M602 1014 c-34 -35 -57 -64 -49 -64 12 0 63 50 111 108 39 46 -1 18&#10;-62 -44z"/>
    <path d="M1113 1069 c-8 -8 -7 -18 3 -37 8 -15 14 -32 14 -39 0 -21 52 -154&#10;58 -148 6 5 -41 161 -59 197 -12 24 -11 28 5 28 9 0 23 -26 36 -66 23 -69 39&#10;-83 21 -17 -13 46 -13 53 -2 53 5 0 12 -12 15 -27 12 -47 50 -143 58 -143 4 0&#10;-2 24 -13 53 -12 28 -25 66 -29 83 -10 44 -26 69 -34 55 -5 -8 -12 -7 -22 4&#10;-18 18 -36 19 -51 4z"/>
    <path d="M1230 1055 c0 -12 46 -75 54 -75 5 0 1 9 -9 20 -10 11 -15 23 -11 27&#10;3 4 20 -9 37 -28 64 -72 143 -149 147 -144 3 3 -19 30 -47 60 -35 37 -51 61&#10;-47 71 4 12 2 15 -9 11 -8 -4 -22 4 -33 18 -21 27 -82 56 -82 40z"/>
    <path d="M941 1005 c-19 -44 -26 -105 -12 -105 6 0 11 15 11 34 0 19 5 36 11&#10;38 6 2 9 17 7 33 l-4 30 -13 -30z"/>
    <path d="M1370 995 c0 -13 80 -88 87 -81 3 3 -2 15 -13 27 -24 26 -74 63 -74&#10;54z"/>
    <path d="M740 845 c-6 -8 -8 -20 -4 -26 7 -12 -47 -9 -118 7 -48 11 -31 -13&#10;27 -37 30 -12 55 -27 55 -32 0 -14 51 2 91 29 25 17 49 24 82 24 26 0 47 5 47&#10;10 0 12 -8 13 -90 14 -46 1 -64 5 -62 14 3 16 -13 15 -28 -3z"/>
    <path d="M1114 775 l-29 -25 30 6 c39 8 52 21 38 35 -7 7 -19 3 -39 -16z"/>
    <path d="M1030 777 c-35 -15 -36 -17 -20 -27 23 -15 38 -12 50 9 13 25 2 31&#10;-30 18z"/>
    <path d="M1187 393 c-2 -10 -8 -25 -11 -34 -5 -11 2 -18 29 -26 19 -6 35 -9&#10;35 -7 0 8 -40 84 -44 84 -2 0 -6 -8 -9 -17z"/>
    <path d="M1411 383 c-1 -49 0 -52 28 -58 36 -8 63 5 90 44 40 55 -12 86 -59&#10;36 -30 -32 -36 -31 -48 3 -9 24 -10 22 -11 -25z"/>
    <path d="M2087 2322 c-10 -10 -17 -24 -17 -30 0 -7 30 -48 67 -92 60 -72 70&#10;-80 102 -80 37 0 37 1 -21 43 -25 18 -49 52 -74 102 -20 41 -38 75 -39 75 -1&#10;0 -9 -8 -18 -18z"/>
    <path d="M1802 2294 c3 -26 23 -41 122 -85 25 -12 30 -11 42 6 21 29 18 34&#10;-26 41 -22 4 -61 20 -85 35 -25 16 -48 29 -51 29 -3 0 -4 -12 -2 -26z"/>
    <path d="M1750 2270 c-14 -10 -44 -23 -67 -29 -24 -7 -43 -15 -43 -20 0 -4 11&#10;-18 25 -31 l26 -24 45 24 c55 30 54 28 46 67 l-7 32 -25 -19z"/>
    <path d="M2026 2251 c-16 -17 -14 -22 35 -80 41 -49 56 -61 80 -61 16 0 29 3&#10;29 7 0 11 -51 76 -91 115 -35 35 -38 36 -53 19z"/>
    <path d="M1567 2228 c-9 -33 -66 -108 -83 -108 -8 0 -14 -7 -14 -15 0 -10 10&#10;-15 31 -15 27 0 30 2 19 15 -13 15 -3 23 34 29 18 3 56 49 56 69 0 7 -8 22&#10;-19 31 -18 16 -19 16 -24 -6z"/>
    <path d="M1810 2215 c0 -20 8 -29 36 -41 40 -17 75 -15 81 3 3 7 -10 15 -31&#10;19 -20 3 -47 15 -61 26 l-25 19 0 -26z"/>
    <path d="M1980 2195 c-11 -13 -10 -22 3 -50 21 -43 54 -65 89 -58 l27 5 -47&#10;58 c-26 32 -50 59 -53 59 -4 1 -12 -6 -19 -14z"/>
    <path d="M1626 2164 c-4 -13 -17 -29 -29 -35 -18 -8 -15 -8 14 -4 60 9 54 -9&#10;-8 -22 l-58 -11 60 0 c33 0 71 -3 85 -7 24 -7 24 -7 5 8 -17 14 -18 16 -3 17&#10;40 0 128 80 88 80 -18 0 -76 -46 -72 -58 4 -14 -14 -16 -23 -2 -3 5 -12 7 -20&#10;3 -11 -4 -15 2 -15 20 0 35 -16 43 -24 11z"/>
    <path d="M1810 2136 c0 -30 45 -45 68 -22 13 13 10 16 -23 30 -47 20 -45 20&#10;-45 -8z"/>
    <path d="M1929 2138 c-10 -19 -8 -25 17 -45 16 -13 37 -23 47 -23 17 0 16 4&#10;-7 31 -14 17 -26 37 -26 45 0 21 -18 17 -31 -8z"/>
    <path d="M1753 2117 c-29 -13 -30 -31 -3 -22 18 6 20 3 15 -17 -5 -19 1 -27&#10;35 -48 24 -15 60 -53 87 -92 25 -38 47 -68 49 -68 9 0 3 19 -8 32 -7 7 -26 33&#10;-43 57 -16 25 -49 58 -72 75 -48 34 -56 50 -17 36 27 -11 44 -6 44 12 0 6 -13&#10;8 -30 6 -24 -4 -30 -1 -32 17 -3 19 -6 21 -25 12z"/>
    <path d="M1886 2091 c-20 -22 -4 -41 36 -41 34 0 35 6 4 35 -23 22 -26 22 -40&#10;6z"/>
    <path d="M2412 2102 c-27 -4 -45 -30 -67 -100 -17 -50 -17 -54 3 -105 12 -28&#10;22 -61 24 -71 2 -11 9 -21 16 -24 10 -3 12 11 7 69 -6 65 -4 84 20 152 15 43&#10;26 79 24 80 -2 2 -14 1 -27 -1z"/>
    <path d="M2181 2069 c-25 -71 -5 -177 36 -196 15 -7 29 -11 31 -8 2 2 0 33 -5&#10;69 -7 47 -6 78 3 113 7 26 13 49 14 51 0 1 -15 2 -34 2 -29 0 -36 -4 -45 -31z"/>
    <path d="M2278 2073 c-13 -30 -16 -136 -5 -193 6 -28 14 -38 39 -48 17 -6 33&#10;-10 35 -8 2 2 -6 24 -17 50 -25 60 -25 109 0 165 26 57 25 61 -10 61 -24 0&#10;-33 -6 -42 -27z"/>
    <path d="M2129 2083 c-48 -12 -34 -172 15 -181 15 -3 17 0 9 20 -10 29 -11&#10;104 0 141 7 27 6 28 -24 20z"/>
    <path d="M2056 2054 c-19 -19 -22 -104 -4 -122 21 -21 40 -15 32 11 -4 12 -7&#10;46 -6 75 1 28 0 52 -2 52 -3 0 -12 -7 -20 -16z"/>
    <path d="M1837 2053 c-2 -5 4 -16 14 -25 13 -13 19 -13 22 -3 9 21 -26 47 -36&#10;28z"/>
    <path d="M1997 2048 c-21 -8 -27 -14 -21 -27 3 -9 9 -29 13 -45 10 -43 31 -46&#10;24 -3 -3 19 0 44 7 56 15 28 12 31 -23 19z"/>
    <path d="M1401 2043 c-15 -6 -38 -28 -61 -58 -8 -11 4 -4 25 15 22 19 44 38&#10;50 42 10 9 7 9 -14 1z" style="fill: rgb(142, 82, 26);"/>
    <path d="M1900 2012 l-23 -18 36 -17 c46 -22 61 -22 52 1 -4 9 -10 25 -12 35&#10;-7 22 -25 22 -53 -1z"/>
    <path d="M579 1992 c-15 -17 -14 -20 13 -35 l28 -16 0 34 c0 39 -16 46 -41 17z"/>
    <path d="M1690 2001 c0 -4 20 -18 45 -31 25 -13 45 -27 45 -32 0 -4 5 -8 10&#10;-8 23 0 6 18 -45 47 -30 18 -55 28 -55 24z" style="fill: rgb(142, 82, 26);"/>
    <path d="M1930 1930 c0 -5 5 -10 10 -10 6 0 10 -7 10 -15 0 -12 4 -13 25 -3&#10;29 13 32 23 9 32 -24 9 -54 7 -54 -4z"/>
    <path d="M1740 1926 c0 -2 16 -21 36 -42 34 -36 36 -37 19 -8 -15 26 -55 63&#10;-55 50z" style="fill: rgb(142, 82, 26);"/>
    <path d="M2012 1900 c-12 -10 -27 -20 -34 -22 -7 -3 -7 -12 4 -31 l14 -28 48&#10;38 c39 31 45 39 30 42 -10 2 -23 7 -29 11 -6 5 -20 0 -33 -10z"/>
    <path d="M1430 1899 c-17 -4 -41 -4 -53 -2 -16 4 -19 3 -11 -6 7 -8 31 -8 88&#10;-1 43 5 82 8 86 5 5 -3 12 -1 15 5 7 12 -66 11 -125 -1z" style="fill: rgb(142, 82, 26);"/>
    <path d="M1293 1875 c-40 -32 -83 -106 -82 -142 0 -15 3 -22 6 -15 9 23 25 13&#10;19 -13 -5 -18 -1 -27 15 -35 32 -18 79 -21 122 -8 32 10 36 13 21 19 -11 4 15&#10;7 56 6 56 0 62 -2 25 -4 -27 -3 -52 -8 -55 -13 -3 -5 -27 -18 -53 -29 -26 -11&#10;-47 -25 -47 -31 0 -19 -32 -10 -37 10 -6 23 -19 26 -26 8 -4 -10 -6 -10 -6 0&#10;-2 22 -18 12 -31 -19 -10 -24 -10 -38 0 -70 12 -36 21 -44 44 -40 11 2 46 -29&#10;46 -41 0 -15 -19 -8 -23 10 -3 10 -5 6 -6 -11 0 -16 2 -26 7 -24 4 3 16 -7 26&#10;-21 11 -14 14 -22 8 -18 -25 15 -10 -12 29 -53 39 -40 44 -42 88 -39 49 3 82&#10;23 74 44 -3 7 2 23 11 36 9 12 16 30 16 39 0 13 8 16 39 13 30 -2 44 3 61 21&#10;l22 24 -22 23 c-12 13 -34 39 -48 58 -15 19 -31 38 -37 42 -5 4 -6 11 -1 15 5&#10;4 11 2 13 -5 3 -7 25 -34 50 -60 55 -58 46 -36 -16 37 -25 29 -47 48 -49 42&#10;-5 -16 -22 -13 -22 4 0 8 -3 14 -7 12 -5 -1 -10 3 -13 8 -3 6 17 11 50 12 92&#10;4 134 13 160 33 20 16 22 20 8 20 -15 0 -16 4 -8 26 12 29 2 47 -46 87 -51 43&#10;-79 49 -199 42 -150 -8 -175 -17 -210 -73 -16 -26 -31 -40 -33 -32 -3 7 3 17&#10;12 22 9 5 16 16 16 24 0 8 18 27 40 42 37 25 50 42 33 42 -5 0 -22 -11 -40&#10;-25z m117 -28 c19 0 67 4 107 8 66 7 75 6 115 -18 137 -80 89 -127 -132 -127&#10;-54 0 -122 -5 -150 -11 -43 -9 -55 -8 -75 5 -32 21 -31 38 5 91 20 29 35 42&#10;45 39 10 -4 15 0 15 11 0 13 5 15 18 9 9 -4 33 -8 52 -7z m300 -136 c0 -13&#10;-91 -31 -143 -30 -34 1 -28 3 27 10 37 5 75 13 85 19 21 12 31 12 31 1z m-139&#10;-152 c51 -58 59 -72 49 -84 -18 -21 -29 -19 -42 10 -14 31 -28 21 -57 -39 -17&#10;-37 -26 -45 -57 -50 -44 -9 -102 0 -128 19 -16 12 -17 22 -11 75 8 69 45 122&#10;99 145 45 19 78 2 147 -76z m-287 17 c19 -30 21 -52 5 -62 -16 -10 -47 34 -51&#10;72 -3 28 -1 31 13 24 9 -5 24 -20 33 -34z m196 -221 c0 -8 5 -15 11 -15 5 0 7&#10;-5 3 -11 -5 -8 -9 -7 -14 1 -5 8 -20 11 -41 8 -19 -3 -43 -2 -54 2 -19 8 -19&#10;8 5 18 39 17 90 15 90 -3z" style="fill: rgb(227, 174, 124);"/>
    <path d="M1620 1782 c0 -7 -11 -12 -25 -12 -14 0 -25 -4 -25 -10 0 -13 40 -13&#10;60 0 12 7 12 12 2 22 -9 9 -12 9 -12 0z" style="fill: rgb(142, 82, 26);"/>
    <path d="M1453 1762 c-83 -5 -62 -17 23 -14 42 2 73 6 70 10 -8 8 -29 9 -93 4z" style="fill: rgb(142, 82, 26);"/>
    <path d="M1297 1738 c6 -11 65 -10 82 1 9 6 -3 9 -36 8 -28 -1 -49 -5 -46 -9z" style="fill: rgb(142, 82, 26);"/>
    <path d="M1366 1553 c-9 -9 52 -53 73 -53 26 0 73 23 90 44 17 20 17 20 -49&#10;-3 -51 -18 -56 -18 -65 -3 -10 16 -39 25 -49 15z"/>
    <path d="M1173 1844 c-25 -33 -33 -55 -33 -85 0 -24 -8 -52 -19 -67 -28 -39&#10;-32 -120 -8 -157 17 -27 18 -27 12 -5 -19 63 -17 119 4 153 12 19 21 51 21 71&#10;0 25 10 51 36 86 20 27 32 50 27 49 -4 0 -23 -20 -40 -45z" style="fill: rgb(142, 82, 26);"/>
    <path d="M2052 1834 c-30 -24 -48 -44 -40 -44 7 0 21 -12 30 -27 l16 -26 16&#10;31 c9 17 34 46 56 63 29 23 37 35 28 41 -26 16 -54 6 -106 -38z"/>
    <path d="M1747 1850 c12 -10 25 -30 29 -42 6 -20 54 -75 54 -62 0 12 -83 124&#10;-93 124 -6 0 -1 -9 10 -20z" style="fill: rgb(142, 82, 26);"/>
    <path d="M620 1839 c0 -24 36 -79 51 -79 6 0 1 15 -10 34 -12 18 -21 41 -21&#10;50 0 9 -4 16 -10 16 -5 0 -10 -9 -10 -21z"/>
    <path d="M1711 1820 c34 -42 39 -46 39 -30 0 12 -54 70 -64 70 -4 0 8 -18 25&#10;-40z" style="fill: rgb(142, 82, 26);"/>
    <path d="M2135 1804 c-48 -49 -65 -88 -46 -107 8 -8 30 8 83 58 40 38 75 71&#10;78 73 2 2 -2 7 -10 12 -31 20 -61 10 -105 -36z"/>
    <path d="M2270 1794 c-19 -8 -60 -40 -91 -71 l-57 -55 31 -45 32 -44 8 32 c11&#10;44 79 139 116 164 50 33 23 46 -39 19z"/>
    <path d="M2352 1763 c-58 -28 -123 -121 -136 -194 -6 -34 -3 -41 41 -88 l48&#10;-51 2 97 1 98 -15 -45 c-8 -25 -21 -52 -29 -60 -12 -12 -14 -11 -14 12 0 31&#10;24 90 43 106 8 7 12 23 10 35 -7 36 21 57 76 57 26 0 55 6 66 13 17 13 16 15&#10;-15 25 -41 15 -38 15 -78 -5z"/>
    <path d="M1091 1755 c0 -11 -8 -31 -17 -43 -8 -12 -11 -22 -6 -22 18 0 33 29&#10;29 57 -2 17 -5 20 -6 8z"/>
    <path d="M1960 1725 c0 -17 35 -95 43 -95 10 0 10 1 -18 56 -14 27 -25 45 -25&#10;39z"/>
    <path d="M1186 1646 c-9 -19 -16 -42 -15 -53 0 -10 9 4 20 31 23 56 19 73 -5&#10;22z"/>
    <path d="M1758 1673 c6 -2 12 -20 12 -39 0 -19 5 -34 11 -34 7 0 8 12 4 33 -9&#10;40 -13 47 -28 46 -9 0 -9 -2 1 -6z"/>
    <path d="M2365 1670 c-11 -5 -15 -9 -8 -9 6 -1 9 -10 5 -23 -3 -14 -2 -19 6&#10;-14 7 4 12 14 12 22 0 8 5 14 10 14 6 0 10 5 10 10 0 12 -8 12 -35 0z"/>
    <path d="M1859 1590 c-5 -55 -4 -68 7 -58 3 3 4 30 2 59 l-3 54 -6 -55z"/>
    <path d="M2357 1573 c-11 -10 -8 -25 3 -18 6 4 18 1 26 -6 8 -6 17 -9 21 -5 4&#10;3 -2 13 -13 21 -22 16 -28 18 -37 8z"/>
    <path d="M2066 1438 c-4 -53 -5 -102 -1 -107 3 -6 -2 -22 -11 -36 -26 -40 -12&#10;-78 53 -140 31 -30 59 -53 61 -50 9 8 -20 42 -63 75 -44 34 -45 36 -40 80 3&#10;25 7 74 10 110 2 36 6 79 9 95 2 17 1 39 -3 50 -5 13 -11 -13 -15 -77z"/>
    <path d="M2358 1518 c-6 -17 1 -38 13 -38 5 0 9 11 9 25 0 26 -14 34 -22 13z"/>
    <path d="M1898 1497 c-2 -6 -1 -34 2 -62 l6 -50 4 58 c5 54 -2 85 -12 54z"/>
    <path d="M1113 1461 c-7 -22 -13 -53 -12 -68 1 -21 4 -16 15 22 17 62 14 104&#10;-3 46z"/>
    <path d="M1980 1441 c0 -16 -3 -36 -6 -45 -3 -9 -2 -16 4 -16 12 0 21 79 10&#10;86 -4 3 -8 -8 -8 -25z"/>
    <path d="M2359 1458 c-5 -16 -4 -48 2 -48 15 0 39 12 39 21 0 4 -8 5 -17 2&#10;-12 -5 -15 -2 -10 10 3 9 2 17 -3 17 -6 0 -10 -1 -11 -2z"/>
    <path d="M1864 1285 c-3 -25 -3 -57 0 -72 10 -40 30 -83 38 -83 12 0 10 8 -9&#10;37 -13 20 -18 46 -17 95 0 37 -1 68 -2 68 -2 0 -6 -20 -10 -45z"/>
    <path d="M2370 1318 c-18 -7 -21 -11 -11 -17 7 -5 10 -14 7 -20 -4 -6 -3 -11&#10;2 -11 8 0 36 50 30 55 -2 2 -14 -2 -28 -7z"/>
    <path d="M1914 1204 c8 -30 36 -67 36 -47 0 7 -4 15 -10 18 -5 3 -10 15 -10&#10;25 0 10 -5 22 -11 26 -9 5 -10 -1 -5 -22z"/>
    <path d="M2352 1210 c-11 -18 -10 -20 20 -20 23 0 29 3 19 9 -7 5 -10 14 -7&#10;20 4 6 1 11 -6 11 -7 0 -19 -9 -26 -20z"/>
    <path d="M1764 1132 c1 -61 0 -65 -34 -92 -19 -16 -32 -30 -28 -30 4 0 23 14&#10;43 31 37 33 42 57 25 124 -5 22 -7 13 -6 -33z"/>
    <path d="M2024 1174 c29 -69 29 -93 2 -147 l-27 -52 31 34 c16 18 30 28 30 21&#10;0 -8 -8 -22 -17 -32 -16 -18 -16 -19 12 -8 16 6 36 8 44 5 9 -3 6 3 -6 12 -19&#10;15 -22 24 -17 56 4 20 11 37 15 37 13 0 11 34 -3 48 -19 19 -33 14 -15 -6 14&#10;-16 15 -21 4 -37 -12 -16 -15 -13 -27 29 -7 26 -17 49 -23 53 -7 4 -8 -1 -3&#10;-13z"/>
    <path d="M1850 1148 c0 -4 5 -18 11 -31 8 -18 8 -30 0 -46 -8 -13 -8 -21 -2&#10;-21 19 0 23 47 7 77 -8 15 -15 25 -16 21z"/>
    <path d="M1720 1122 c0 -11 -18 -36 -41 -57 -22 -20 -39 -38 -37 -40 6 -7 74&#10;58 87 82 7 14 8 24 1 28 -5 3 -10 -3 -10 -13z"/>
    <path d="M1818 1106 c3 -27 -2 -39 -30 -66 -18 -17 -27 -30 -19 -28 8 2 27 20&#10;42 39 21 25 26 41 22 62 -8 39 -20 34 -15 -7z"/>
    <path d="M2370 1099 c-19 -8 -21 -12 -11 -18 7 -5 10 -14 7 -20 -4 -6 -3 -11&#10;3 -11 6 0 17 14 26 30 17 32 14 34 -25 19z"/>
    <path d="M1876 1019 c-36 -40 -28 -48 9 -9 16 16 26 32 23 35 -2 3 -17 -9 -32&#10;-26z"/>
    <path d="M1668 1003 c-4 -10 -69 -58 -88 -66 -9 -3 -10 -6 -2 -6 7 -1 35 14&#10;62 32 47 30 61 47 41 47 -5 0 -11 -3 -13 -7z"/>
    <path d="M2176 925 c-10 -8 -23 -16 -28 -17 -11 -4 1 -38 13 -38 12 0 42 47&#10;37 59 -1 5 -11 3 -22 -4z"/>
    <path d="M1855 898 c-5 -5 -28 -25 -50 -44 -22 -18 -35 -33 -30 -33 13 0 101&#10;76 95 82 -3 3 -9 0 -15 -5z"/>
    <path d="M1700 819 c-19 -17 -47 -35 -62 -41 -16 -5 -28 -14 -28 -19 0 -14 9&#10;-11 53 21 64 45 93 70 82 69 -5 0 -26 -14 -45 -30z"/>
    <path d="M2140 817 c0 -14 -4 -29 -10 -32 -5 -3 -10 -13 -10 -21 0 -14 2 -14&#10;15 0 8 8 15 22 15 31 0 10 5 13 13 9 7 -5 7 -1 -3 12 -8 10 -16 21 -17 23 -2&#10;2 -3 -7 -3 -22z"/>
    <path d="M1798 802 c-20 -15 -42 -36 -49 -47 -8 -13 -1 -10 23 10 19 17 43 35&#10;54 41 10 7 17 14 14 17 -3 3 -21 -7 -42 -21z"/>
    <path d="M1670 748 l-45 -41 55 38 c30 22 57 40 59 42 2 2 -2 3 -10 3 -8 -1&#10;-34 -19 -59 -42z"/>
    <path d="M2072 513 c-13 -3 -26 -11 -29 -19 -6 -16 -29 -19 -35 -5 -5 15 -41&#10;15 -69 2 -35 -17 -57 -58 -55 -104 0 -20 -1 -37 -5 -37 -3 0 -13 23 -23 50&#10;-21 59 -65 110 -96 110 -11 0 -18 -4 -15 -10 3 -5 -2 -10 -12 -10 -18 -1 -113&#10;-134 -113 -159 0 -6 -4 -11 -10 -11 -6 0 -6 -10 1 -27 5 -14 7 -39 4 -53 -13&#10;-60 17 -99 70 -91 24 3 62 37 70 62 8 23 35 13 35 -13 0 -10 4 -17 9 -13 5 3&#10;12 -4 16 -15 7 -21 30 -27 40 -10 9 15 31 12 49 -6 29 -29 93 -3 123 49 9 17&#10;12 17 34 -10 35 -42 62 -28 94 46 16 36 22 167 9 215 -8 33 -38 67 -56 65 -7&#10;-1 -23 -4 -36 -6z m-287 -33 c-3 -6 3 -22 14 -36 31 -40 51 -118 51 -201 0&#10;-58 -3 -73 -15 -73 -10 0 -15 10 -15 28 0 51 -10 67 -53 85 -56 23 -57 22 -46&#10;-15 5 -18 9 -40 9 -49 0 -14 -57 -49 -81 -49 -10 0 -5 68 8 114 4 14 1 18 -11&#10;13 -26 -10 -29 12 -3 24 14 6 33 31 45 57 23 50 74 112 92 112 6 0 8 -5 5 -10z&#10;m346 -20 c14 -49 9 -174 -9 -224 -18 -50 -51 -81 -39 -37 4 15 -8 39 -41 83&#10;-62 82 -68 88 -77 88 -11 0 5 -90 21 -122 8 -15 14 -33 14 -40 0 -13 -52 -38&#10;-78 -38 -15 0 -16 157 -2 196 7 19 7 30 -1 40 -8 10 -5 20 13 43 12 17 28 30&#10;33 30 16 1 84 -98 102 -150 10 -27 21 -49 25 -49 5 0 8 3 8 8 -1 7 -35 129&#10;-46 163 -3 9 3 20 18 27 33 16 51 10 59 -18z"/>
    <path d="M1729 374 c-5 -15 -8 -29 -6 -31 6 -6 67 -22 67 -18 0 7 -42 75 -46&#10;75 -3 0 -9 -12 -15 -26z"/>
  </g>
  <g transform="matrix(0.026421, 0, 0, -0.02665, 89.380333, 282.85675)" fill="#000000" stroke="none" style="">
    <path d="M 1300 2600 L 1300 2540 L 1335 2540 C 1364 2540 1370 2544 1370 2561 C 1370 2575 1375 2580 1386 2578 C 1401 2575 1403 2562 1401 2485 C 1399 2419 1395 2393 1384 2387 C 1376 2382 1370 2363 1370 2340 L 1370 2300 L 1439 2300 L 1508 2300 L 1512 2341 C 1514 2366 1511 2384 1504 2388 C 1496 2393 1491 2427 1489 2485 C 1487 2562 1489 2575 1504 2578 C 1515 2580 1520 2575 1520 2561 C 1520 2543 1526 2540 1559 2540 L 1598 2540 L 1598 2600 L 1598 2660 L 1449 2660 L 1300 2660 L 1300 2600 Z M 1494 2618 C 1491 2614 1498 2610 1510 2610 C 1522 2610 1528 2615 1525 2620 C 1517 2632 1422.807 2632.494 1441.807 2620.494 C 1465.807 2605.494 1554.818 2595.569 1445.865 2615.704 C 1421.939 2620.126 1452.057 2585.224 1452.057 2576.224 C 1452.057 2569.224 1462.983 2624.31 1454.983 2627.31 C 1442.983 2632.31 1452 2571 1453 2481 C 1454 2412 1460 2368 1467 2358 C 1478 2345 1474.336 2635.037 1444.336 2634.037 C 1405.336 2632.037 1405 2342 1422 2373 C 1428 2385 1433.989 2431.035 1436 2475 C 1440.862 2581.289 1462.434 2657.055 1374 2597 C 1353.055 2582.776 1479.222 2622.519 1479.222 2632.519 C 1479.222 2643.519 1348 2618 1372 2613 C 1390 2610 1401 2611 1398 2616 C 1394 2621 1416 2625 1445 2626 C 1475 2626 1496 2622 1494 2618 Z" style="fill: rgb(255, 255, 255);"/>
    <path d="M 1647 2643 C 1634 2620 1630 2576 1640 2570 C 1657 2560 1611 2398 1589 2393 C 1575 2389 1556 2337 1559 2311 C 1559 2308 1584 2300 1615 2292 C 1683 2275 1691 2281 1695 2347 C 1698 2423 1696 2420 1730 2407 C 1760 2395 1772 2359 1750 2345 C 1740 2339 1707 2269 1712 2265 C 1723 2259 1836 2232 1839 2236 C 1841 2238 1844 2266 1844 2297 C 1846 2369 1878 2490 1896 2490 C 1906 2490 1924 2534 1925 2564 C 1925 2568 1899 2580 1867 2590 C 1801 2611 1801 2610 1796 2539 C 1793 2477 1787 2469 1750 2483 C 1715 2496 1714 2500 1738 2531 C 1749 2544 1762 2569 1767 2586 L 1778 2617 L 1719 2634 C 1651 2653 1653 2652 1647 2643 Z M 1724 2583 C 1727 2576 1725 2570 1719 2570 C 1713 2570 1712 2566 1715 2560 C 1718 2555 1715 2550 1707 2550 C 1697 2550 1694 2543 1697 2530 C 1700 2519 1697 2510 1691 2510 C 1685 2510 1680 2516 1680 2524 C 1680 2531 1677 2552 1674 2569 C 1668 2598 1583.13 2316.731 1608.13 2314.731 C 1622.13 2313.731 1722 2590 1724 2583 Z M 1837.853 2379.099 C 1843.208 2390.559 1865 2509 1856 2495 C 1847 2482 1840 2462 1840 2451 C 1840 2440 1836 2428 1830 2425 C 1825 2422 1820 2408 1820 2395 C 1820 2382 1815 2368 1809 2365 C 1803 2361 1800 2342 1802 2322 C 1804 2293 1825.211 2454.605 1810.211 2451.605 C 1793.211 2447.605 1768 2282 1775 2316 C 1787 2376 1833.041 2413.134 1815.041 2426.134 C 1806.041 2433.134 1857.441 2410.137 1857.441 2418.137 C 1857.441 2430.137 1752 2463 1759 2451 C 1767 2439 1795.029 2415.95 1820.029 2441.95 C 1837.029 2459.95 1830 2512 1830 2524 C 1830 2563 1752.073 2195.518 1837.853 2379.099 Z M 1668.042 2482.683 C 1690.042 2454.683 1674.206 2466.192 1655.206 2466.192 C 1632.206 2466.192 1671 2413 1660 2370 C 1652 2341 1749.19 2600.163 1735.19 2600.163 C 1714.19 2600.163 1606 2338 1616 2364 C 1619 2373 1626 2378 1631 2375 C 1635 2372 1642 2386 1645 2407 C 1654 2458 1670 2500 1682 2500 C 1687 2500 1657.042 2494.683 1668.042 2482.683 Z" style="fill: rgb(255, 255, 255);"/>
    <path d="M 1058 2598 L 1030 2588 L 1030 2444 C 1030 2345 1027 2300 1019 2300 C 1009 2300 1014 2238 1026 2219 C 1028 2216 1057 2222 1090 2234 C 1158 2258 1166 2276 1125 2314 C 1085 2351 1091 2360 1168 2384 C 1184 2389 1192 2387 1197 2375 C 1200 2365 1197 2354 1190 2350 C 1180 2344 1180 2335 1189 2308 L 1201 2273 L 1263 2294 C 1297 2306 1327 2316 1328 2317 C 1330 2318 1327 2335 1320 2355 C 1311 2383 1304 2391 1290 2387 C 1280 2384 1269 2388 1267 2395 C 1253 2431 1114 2610 1101 2609 C 1092 2609 1073 2604 1058 2598 Z M 1124 2538 C 1148 2507 1137.962 2547.522 1112.962 2572.522 C 1104.962 2580.522 1076.341 2573.214 1063.341 2561.214 C 1046.341 2546.214 1070 2489 1070 2522 C 1070 2580 1087 2585 1124 2538 Z M 1135 2468 C 1149 2447 1149 2444 1134 2433 C 1111 2416 1100 2425 1100 2461 C 1100 2496 1113 2498 1135 2468 Z M 1201 2433 C 1208 2417 1216 2401 1218 2397 C 1221 2392 1211 2396 1196 2405 C 1182 2415 1225.767 2370.377 1225.767 2380.377 C 1225.767 2407.377 1185 2464 1201 2433 Z M 1095 2410 C 1104 2395 1102.928 2408.119 1091.928 2419.119 C 1081.928 2429.119 1068 2420 1080 2420 C 1085 2420 1092 2415 1095 2410 Z M 1095 2289 C 1095 2282 1102.411 2325.016 1093.411 2323.016 C 1075.411 2320.016 1053 2290 1067 2304 C 1077 2314 1095 2305 1095 2289 Z" style="fill: rgb(255, 255, 255);"/>
    <path d="M 2020 2468 C 2009 2450 2005 2434 2010 2432 C 2027 2426 2021 2406 1986 2355 C 1968 2327 1950 2295 1946 2282 C 1940 2266 1933 2261 1920 2265 C 1907 2269 1897 2261 1883 2237 L 1863 2204 L 1927 2166 C 1962 2145 1992 2129 1994 2131 C 2019 2164 2028 2188 2024 2206 C 2020 2221 2028 2243 2047 2272 C 2063 2296 2081 2327 2087 2342 C 2095 2360 2104 2367 2117 2364 C 2129 2361 2141 2369 2153 2392 C 2171 2423 2171 2425 2155 2435 C 2145 2440 2119 2457 2096 2472 C 2074 2487 2052 2500 2047 2500 C 2043 2500 2031 2485 2020 2468 Z M 1945.826 2188.212 L 2122 2407 L 2097 2393 C 2083 2386 2069 2371 2065 2360 C 2062 2349 2054 2340 2049 2340 C 2044 2340 2040 2334 2040 2326 C 2040 2318 2033 2310 2025 2306 C 2017 2303 2010 2292 2010 2281 C 2010 2271 2003 2259 1994 2256 C 1986 2253 1982 2245 1985 2240 C 1989 2234 1928.888 2218.78 1925.888 2205.78 C 1919.888 2183.78 1977 2182 1955 2192 C 1941 2198 2008.086 2233.475 2008.086 2239.475 C 2008.086 2244.475 1948 2243 1970 2268 C 2025 2330 2042 2368 2049 2443 C 2051 2456 1916.826 2211.212 1945.826 2188.212 Z" style="fill: rgb(255, 255, 255);"/>
    <path d="M 734 2429 C 724 2418 687 2388 653 2363 L 592 2317 L 613 2284 C 627 2262 641 2252 651 2255 C 662 2259 683 2239 719 2190 C 747 2151 768 2115 765 2109 C 758 2099 790 2040 802 2040 C 806 2040 845 2070 889 2106 C 957 2163 969 2177 974 2211 C 979 2245 976 2257 953 2290 C 937 2311 917 2331 906 2334 C 896 2336 890 2345 892 2352 C 895 2359 887 2377 874 2392 C 862 2407 850 2423 848 2428 C 847 2433 824 2440 799 2444 C 760 2450 751 2448 734 2429 Z M 831.016 2295.412 C 839.016 2304.412 813.77 2298.071 827.77 2279.071 C 846.77 2255.071 925.919 2233.154 916.919 2229.154 C 907.919 2225.154 922.984 2212.688 927.984 2215.688 C 936.984 2221.688 942 2235 934 2227 C 931 2225 915 2236 899 2251 C 882 2267 858 2280 846 2280 C 827 2280 825 2286 825 2322 C 825 2346 819 2365 812 2368 C 805 2370 802 2376 805 2381 C 809 2386 804 2387 796 2384 C 781 2378 819.016 2284.412 831.016 2295.412 Z M 800 2339 C 807 2328 810 2317 808 2317 C 806 2316 795 2306 783 2296 C 761 2278 761 2278 749 2304 C 738 2327 739 2332 756 2345 C 782 2364 787 2364 800 2339 Z M 715 2328 C 707 2289 750.833 2122.121 775.833 2147.121 C 781.833 2153.121 800.77 2247.307 804.77 2243.307 C 808.77 2239.307 808 2255 800 2250 C 788 2243 767.41 2135.651 779.41 2102.651 C 793.41 2058.651 859.951 2124.616 885.951 2146.616 C 902.951 2160.616 895 2163 878 2146 C 859 2128 817 2100 808 2100 C 803 2100 800 2106 800 2114 C 800 2137 709 2264 679 2283 C 644 2306 725.766 2204.738 754.766 2228.738 C 785.766 2254.738 722 2355 715 2328 Z M 878 2198 C 849 2176 847 2176 824 2201 C 806 2221 806 2222 830 2240 C 855 2258 855 2258 878 2237 L 901 2216 L 878 2198 Z" style="fill: rgb(255, 255, 255);"/>
    <path d="M 2231 2317 C 2219 2304 2212 2287 2215 2279 C 2221 2262 2094 2135 2085 2150 C 2078 2162 2020 2122 2020 2105 C 2020 2099 2040 2075 2064 2051 L 2107 2008 L 2134 2035 C 2155 2056 2158 2065 2150 2075 C 2141 2086 2146 2096 2172 2119 C 2201 2146 2230 2159 2230 2145 C 2230 2143 2224 2126 2216 2108 C 2208 2090 2192 2046 2181 2010 L 2161 1945 L 2188 1917 L 2216 1889 L 2310 1979 C 2372 2037 2409 2065 2416 2059 C 2423 2054 2437 2061 2455 2080 L 2484 2110 L 2440 2155 L 2396 2200 L 2368 2173 C 2347 2153 2343 2144 2352 2138 C 2362 2133 2356 2122 2334 2099 C 2284 2050 2279 2070 2314 2168 L 2347 2257 L 2308 2299 C 2287 2321 2266 2340 2261 2340 C 2257 2340 2244 2329 2231 2317 Z M 2174.683 2157.874 C 2193.683 2139.874 2303 2246 2288 2195 C 2273 2144 2275 2149 2266 2118 C 2256 2083 2300.615 2192.701 2309.615 2226.701 C 2316.615 2253.701 2232 2170 2204 2170 C 2189 2170 2189 2172 2204 2193 C 2213 2205 2228 2230 2237 2248 C 2256 2284 2152.683 2179.874 2174.683 2157.874 Z M 2112 2103 C 2103 2099 2069.382 2096.638 2077.382 2086.638 C 2086.382 2075.638 2117 2073 2101 2077 C 2075 2084 2080.735 2077.077 2105.735 2082.077 C 2126.735 2087.077 2130 2109 2112 2103 Z M 2270 2070 C 2270 2065 2284 2057 2301 2052 L 2333 2044 L 2213.778 2027.072 C 2189.778 2004.072 2239 1962 2233 1965 C 2226 1967 2220 1965 2220 1959 C 2220 1953 2259.122 1966.91 2254.122 1970.91 C 2248.122 1973.91 2208 1980 2217 2008 C 2225 2034 2338.974 2023.899 2341.974 2030.899 C 2345.974 2044.899 2270 2085 2270 2070 Z" style="fill: rgb(255, 255, 255);"/>
    <path d="M 1392 2150 C 1305 2141 1254 2111 1213 2047 C 1198 2024 1181 2000 1176 1995 C 1142 1963 1100 1886 1100 1857 C 1100 1839 1093 1814 1084 1802 C 1076 1790 1071 1771 1075 1760 C 1078 1750 1077 1732 1071 1722 C 1065 1711 1064 1699 1068 1696 C 1072 1692 1075 1618 1076 1532 C 1076 1445 1081.945 1296.433 1087.945 1269.433 C 1088.444 1267.547 1072.178 1262.927 1096.129 1259.329 C 1207.526 1242.595 1539.382 1242.964 1727.879 1257.313 C 1739.406 1258.191 1747.877 1255.449 1757.656 1256.472 C 1788.684 1259.719 1775.447 1258.655 1788.034 1258.974 C 1798.69 1259.244 1827.902 1261.444 1863.369 1265.839 C 1866.476 1266.224 1861.556 1290.344 1862.535 1296.757 C 1864.648 1310.597 1838 1383 1824 1414 C 1804 1459 1801 1474 1810 1485 C 1817 1494 1822 1539 1822 1607 C 1821 1666 1826 1717 1831 1720 C 1861 1739 1736 2014 1665 2085 C 1639 2111 1606 2132 1571 2143 C 1514 2161 1505 2161 1392 2150 Z M 1645.634 2032.249 C 1654.173 2073.14 1640 2072 1640 2053 C 1640 2045 1644 2041 1649 2045 C 1550.816 1972.142 1553.851 1861.387 1586.948 1815.8 C 1594.335 1805.626 1600.935 1838.251 1610.819 1830.642 C 1665.351 1788.661 1746.904 1788.935 1805.069 1823.677 C 1808.503 1825.728 1712 1956 1727 1931 C 1753.245 1887.039 1678.014 1863 1601.452 1852.115 C 1564.137 1846.81 1512.54 1829.517 1503.534 1819.234 C 1482.756 1795.509 1372.582 1793.018 1370.545 1789.624 C 1367.545 1784.624 1575.536 1627.799 1522.532 1629.692 C 1425.73 1633.148 1371.347 1525.732 1388.915 1539.504 C 1408.867 1555.144 1220.111 1566.305 1235.839 1554.931 C 1242.839 1549.931 1800 1410 1791 1410 C 1780 1410 1781 1405 1795 1389 C 1816 1367 1793.709 1369.974 1773.709 1334.974 C 1767.709 1322.974 1817.296 1355.798 1815.948 1396.69 C 1815.948 1420.302 1340.166 1568.377 1250.479 1585.6 C 1244.2 1586.806 1250.2 1637.756 1245.824 1640.752 C 1241.27 1643.87 1236.945 1600.563 1238.519 1605.493 C 1320.248 1861.365 1171.877 1710.434 1186.087 1694.297 C 1196.285 1682.716 1335.524 1729.785 1319.178 1789.268 C 1316.825 1797.829 1300.175 1738.856 1294.439 1749.621 C 1291.296 1755.517 1332.803 1772.096 1320.791 1787.498 C 1312.245 1798.457 1263.694 1792.549 1231.135 1799.951 C 1212.87 1804.104 1202.417 1822.832 1200.118 1825.798 C 1190.013 1838.833 1220.365 1861.483 1216.533 1888.976 C 1215.567 1895.909 1253.346 1921.881 1250.744 1929.447 C 1242.386 1953.753 1190.501 1961.108 1207 1978 C 1214 1985 1220 1997 1220 2003 C 1221 2019 1107.169 1870.809 1142.169 1893.809 C 1145.938 1896.232 1159.857 1908.37 1181.643 1914.699 C 1240.779 1931.878 1344.947 1950.594 1363.216 1952.786 C 1376.592 1954.329 1610.394 1903.52 1623.016 1946.754 C 1634.93 1987.559 1426.029 2122.543 1427 2124 C 1429.352 2098.013 1568.153 1661.217 1645.634 2032.249 Z" style="fill: rgb(50, 30, 13);"/>
    <path d="M 1409 1966 C 1406 1962 1363 1956 1268 1946 C 1244 1943 1200 1885 1194 1848 C 1189 1823 1193 1810 1209 1796 C 1221 1785 1230 1780 1230 1783 C 1230 1786 1244 1785 1260 1780 C 1278 1775 1290 1775 1290 1781 C 1290 1786 1297 1790 1305 1790 C 1326 1790 1316.998 1788.014 1281.998 1753.014 C 1247.998 1719.014 1237.271 1709.807 1235.497 1701.942 C 1227.77 1667.68 1249 1624 1246 1612 C 1242.973 1548.561 1314.634 1526.616 1320.655 1526.897 C 1327.526 1527.218 1383.228 1517.914 1398 1541 C 1410.528 1560.579 1435.212 1603.151 1458.975 1616.108 C 1467.121 1620.549 1530.525 1632.384 1524.455 1638.454 C 1500.455 1662.454 1430 1665 1430 1645 C 1430 1637 1426 1630 1420 1630 C 1415 1630 1410 1622 1410 1612 C 1410 1583 1481.474 1728.036 1436.474 1728.036 C 1369.474 1728.036 1270 1576 1270 1632 C 1270 1710 1236.978 1555.609 1296.978 1556.609 C 1322.978 1556.609 1402.801 1682.425 1437.195 1640.915 C 1460.481 1612.811 1522.615 1628.071 1527.239 1629.525 C 1546.318 1635.526 1496 1691 1451 1738 L 1401 1790 L 1433 1790 C 1482 1790 1543 1810 1562 1833 C 1590 1865 1566 1916 1510 1945 C 1482 1959 1416 1973 1409 1966 Z M 1387 1933 C 1460 1944 1304.788 1938.918 1345.788 1903.918 C 1408.788 1850.918 1447.349 1948.577 1285.349 1935.577 C 1221.349 1930.577 1271 1808 1253 1805 C 1227 1799 1304.266 1813.367 1298.266 1832.367 C 1289.266 1861.367 1238 1910 1262 1910 C 1272 1910 1280 1917 1280 1925 C 1280 1936 1285 1937 1303 1931 C 1315 1926 1352 1927 1387 1933 Z" style="fill: rgb(185, 140, 89);"/>
    <path d="M1300 1687 c0 -34 86 -41 111 -11 20 24 0 29 -33 9 -29 -17 -32 -17&#10;-43 -1 -15 19 -35 21 -35 3z" style="fill: rgb(50, 30, 13);"/>
    <path d="M1316 1511 c15 -15 57 -17 61 -3 3 8 -7 12 -33 12 -23 0 -34 -4 -28&#10;-9z" style="fill: rgb(185, 140, 89);"/>
    <path d="M 356 1960 C 346 1937 342 1915 346 1911 C 452 1822 541 1733 537 1719 C 534 1708 544 1697 568 1686 C 587 1677 604 1670 605 1672 C 608 1676 660 1792 660 1795 C 660 1796 646 1803 630 1810 C 608 1819 597 1820 586 1811 C 576 1802 570 1803 561 1814 C 544 1834 583 1912 605 1904 C 613 1900 620 1892 620 1884 C 620 1877 634 1863 650 1855 L 680 1839 L 702 1887 C 714 1913 727 1943 732 1953 C 738 1966 732 1973 703 1985 C 671 1998 666 1998 656 1985 C 647 1972 632 1972 560 1980 C 513 1986 452 1993 425 1997 L 375 2002 L 356 1960 Z M 452.46 1944.442 C 465.46 1936.442 482 1940 467 1940 C 457 1940 452 1936 455 1930 C 458 1925 471 1920 483 1920 C 515 1920 500.88 1919.489 492.88 1900.489 C 483.88 1876.489 496 1866 469 1894 C 449 1915 444 1916 432 1903 C 422.228 1893.228 425.911 1891.5 442.401 1904.648 C 454.596 1914.372 480.883 1935.233 477.057 1951.389 C 470.057 1976.389 390 1960 421 1960 C 440 1960 444.46 1949.442 452.46 1944.442 Z M 675 1933 C 675 1916 683.923 1974.157 671.923 1972.157 C 658.923 1970.157 645 1930 630 1925 C 619 1921 683.854 1914.1 683.854 1919.1 C 683.854 1924.1 645.62 1935.135 663.62 1941.135 C 680.62 1946.135 676 1948 675 1933 Z M 578.086 1729.284 C 594.086 1725.284 610 1764 607 1757 C 602 1741 574 1741 577 1757 C 579 1764 545 1771 535 1787 C 517 1814 563.086 1733.284 578.086 1729.284 Z" style="fill: rgb(255, 255, 255);"/>
    <path d="M 2362 1942 C 2276 1907 2267 1901 2251 1865 L 2233 1825 L 2268 1740 C 2287 1693 2305 1653 2306 1651 C 2309 1647 2456 1705 2477 1718 C 2487 1724 2485 1735 2470 1765 C 2459 1787 2450 1810 2450 1817 C 2450 1826 2441 1826 2415 1813 C 2396 1804 2380 1791 2380 1784 C 2380 1769 2349 1757 2339 1767 C 2335 1771 2328 1787 2325 1801 C 2319 1827 2322 1829 2399 1859 C 2443 1876 2483 1890 2489 1890 C 2502 1890 2510 1836 2498 1829 C 2486 1822 2507 1755 2526 1739 C 2542 1726 2575 1757 2589 1800 C 2599 1830 2597 1842 2574 1895 C 2553 1945 2542 1959 2516 1968 C 2470 1985 2466 1984 2362 1942 Z M 2499.821 1904.769 L 2525 1913 L 2485 1914 C 2463 1914 2435 1911 2423 1907 C 2410 1902 2434.183 1895.586 2434.183 1900.586 C 2434.183 1909.586 2438 1898.21 2455 1899.21 C 2461 1900.21 2483.821 1911.769 2499.821 1904.769 Z M 2340 1870 C 2332 1865 2323 1863 2319 1866 C 2315 1868 2309 1861 2305 1850 C 2302 1839 2294 1830 2289 1830 C 2281 1830 2291.248 1811.331 2300.248 1818.331 C 2300.248 1819.331 2313.812 1847.417 2324.812 1853.417 C 2348.812 1866.417 2363 1884 2340 1870 Z M 2428 1754 C 2426 1745 2405 1730 2380 1720 C 2344 1706 2333 1705 2323 1716 C 2302 1737 2318.899 1693.087 2344.899 1684.087 C 2367.899 1675.087 2455.125 1760.91 2455.125 1776.91 C 2455.125 1780.91 2407 1770 2416 1770 C 2425 1770 2430 1763 2428 1754 Z" style="fill: rgb(255, 255, 255);"/>
    <path style="fill: rgb(50, 30, 13); stroke: rgb(50, 30, 13);" d="M 1192.985 1798.983 C 1183.692 1777.254 1238.021 1771.771 1311.693 1773.264 C 1325.824 1773.551 1342.307 1784.519 1357.549 1785.253 C 1375.503 1786.118 1392.369 1776.823 1410.92 1778.112 C 1448.403 1780.716 1486.062 1783.966 1519.685 1786.982 C 1520.819 1787.084 1561.171 1811.31 1562.317 1811.31 C 1563.958 1811.31 1541.098 1811.386 1542.739 1811.386 C 1546.899 1811.386 1551.06 1811.386 1555.221 1811.386"/>
    <path d="M 1161.715 1763.676 C 1157.796 1735.207 1192.251 1687.743 1218.878 1710.927 C 1228.3 1714.873 1225.191 1734.001 1201.182 1751.429 C 1194.774 1756.081 1196.356 1767.844 1191.555 1770.458 C 1180.444 1776.509 1160.749 1769.085 1161.715 1763.676 Z" style="fill: rgb(185, 140, 89); transform-origin: 1187.94px 1742.31px;"/>
  </g>
  <path style="fill: rgba(172, 76, 76, 0); stroke: rgb(255, 215, 0); stroke-width: 0.4px;" d="M 102.657 172.424 C 102.657 175.583 102.311 179.125 102.811 182.248 C 104.181 190.795 109.748 199.754 117.436 203.95 C 119.586 205.123 122.089 205.518 124.475 205.908 C 127.824 206.455 131.572 207.524 134.696 205.853 C 144.175 200.786 149.386 191.413 152.167 181.358 C 152.65 179.611 153.14 177.794 153.404 175.995 C 153.573 174.842 153.662 173.422 153.876 172.276"/>
  <ellipse style="stroke: rgb(0, 0, 0);" cx="104.348" cy="116.701" rx="2.769" ry="2.681"/>
</svg>